<?xml version="1.0" encoding="utf-8"?>
<!-- Generator: Adobe Illustrator 22.1.0, SVG Export Plug-In . SVG Version: 6.00 Build 0)  -->
<svg version="1.1" id="Layer_1" xmlns="http://www.w3.org/2000/svg" xmlns:xlink="http://www.w3.org/1999/xlink" x="0px" y="0px"
	 viewBox="0 0 325 260" style="enable-background:new 0 0 325 260;" xml:space="preserve">
<style type="text/css">
	.st0{opacity:0.5;}
	.st1{fill:none;stroke:#A3ACD6;stroke-width:1.9719;stroke-linecap:round;stroke-linejoin:round;stroke-miterlimit:10;}
	.st2{fill:#E5EEFD;}
	.st3{fill:#A3ACD6;}
	.st4{fill:none;stroke:#A3ACD6;stroke-width:3;stroke-linecap:round;stroke-linejoin:round;stroke-miterlimit:10;}
	.st5{opacity:0.5;fill:none;stroke:#A3ACD6;stroke-width:2;stroke-linecap:round;stroke-linejoin:round;stroke-miterlimit:10;}
	.st6{fill:none;stroke:#C9D7ED;stroke-width:2.3278;stroke-linecap:round;stroke-linejoin:round;stroke-miterlimit:10;}
	.st7{fill:none;stroke:#9FC3FD;stroke-width:1.9634;stroke-linecap:round;stroke-linejoin:round;stroke-miterlimit:10;}
	.st8{fill:none;}
	.st9{fill:#93B9F4;}
	.st10{fill:#FFFFFF;}
	.st11{fill:#717791;}
	.st12{fill:none;stroke:#717791;stroke-width:2.3579;stroke-linecap:round;stroke-linejoin:round;stroke-miterlimit:10;}
	.st13{fill:#E5EEFD;stroke:#717791;stroke-width:2.3579;stroke-linecap:round;stroke-linejoin:round;stroke-miterlimit:10;}
	.st14{fill:#B8D4FF;}
	.st15{opacity:0.2;fill:#3F72BA;}
	.st16{fill:#FFFFFF;stroke:#717791;stroke-width:2.3579;stroke-linecap:round;stroke-linejoin:round;stroke-miterlimit:10;}
	.st17{fill:#B8D4FF;stroke:#717791;stroke-width:2.3579;stroke-linecap:round;stroke-linejoin:round;stroke-miterlimit:10;}
</style>
<title>Group</title>
<desc>Created with Sketch.</desc>
<g>
	<g class="st0">
		<path class="st1" d="M233.6,40.6h-35c-0.9,0-1.6-0.7-1.6-1.6V10.4c0-0.9,0.7-1.6,1.6-1.6h35c0.9,0,1.6,0.7,1.6,1.6v28.7
			C235.1,39.9,234.4,40.6,233.6,40.6z"/>
		<path class="st1" d="M233.6,40.6h-35c-0.9,0-1.6-0.7-1.6-1.6V10.4c0-0.9,0.7-1.6,1.6-1.6h35c0.9,0,1.6,0.7,1.6,1.6v28.7
			C235.1,39.9,234.4,40.6,233.6,40.6z"/>
		<g>
			<line class="st2" x1="216.2" y1="19.3" x2="230.3" y2="19.3"/>
			<path class="st3" d="M216.2,18.8c2.3-0.6,4.7-0.4,7-0.4c2.3,0.1,4.7,0.2,7,0.5c0.3,0,0.4,0.3,0.4,0.5c0,0.2-0.2,0.4-0.4,0.4
				c-2.3,0.3-4.7,0.4-7,0.4c-2.3,0-4.7,0.1-7-0.5c-0.3-0.1-0.5-0.4-0.4-0.6C215.9,19,216,18.8,216.2,18.8z"/>
		</g>
		<g>
			<line class="st2" x1="202" y1="19.2" x2="212.1" y2="19.3"/>
			<path class="st3" d="M202,18.6c1.7-0.5,3.4-0.4,5.1-0.4c1.7,0,3.4,0.2,5.1,0.4c0.3,0,0.6,0.3,0.5,0.7c0,0.3-0.3,0.5-0.5,0.5
				c-1.7,0.2-3.4,0.3-5.1,0.4c-1.7,0-3.4,0.1-5.1-0.4c-0.3-0.1-0.5-0.4-0.4-0.8C201.6,18.9,201.8,18.7,202,18.6z"/>
		</g>
		<g>
			<line class="st2" x1="216.2" y1="24.1" x2="230.3" y2="24.2"/>
			<path class="st3" d="M216.2,23.6c2.3-0.6,4.7-0.4,7-0.4c2.3,0.1,4.7,0.2,7,0.5c0.3,0,0.4,0.3,0.4,0.5c0,0.2-0.2,0.4-0.4,0.4
				c-2.3,0.3-4.7,0.4-7,0.4c-2.3,0-4.7,0.1-7-0.5c-0.3-0.1-0.5-0.4-0.4-0.6C215.9,23.8,216,23.7,216.2,23.6z"/>
		</g>
		<g>
			<line class="st2" x1="202" y1="24.1" x2="212.1" y2="24.1"/>
			<path class="st3" d="M202,23.5c1.7-0.5,3.4-0.4,5.1-0.4c1.7,0,3.4,0.2,5.1,0.4c0.3,0,0.6,0.3,0.5,0.7c0,0.3-0.3,0.5-0.5,0.5
				c-1.7,0.2-3.4,0.3-5.1,0.4c-1.7,0-3.4,0.1-5.1-0.4c-0.3-0.1-0.5-0.4-0.4-0.8C201.6,23.7,201.8,23.6,202,23.5z"/>
		</g>
		<g>
			<line class="st2" x1="216.2" y1="29" x2="230.3" y2="29.1"/>
			<path class="st3" d="M216.2,28.5c2.3-0.6,4.7-0.4,7-0.4c2.3,0.1,4.7,0.2,7,0.5c0.3,0,0.4,0.3,0.4,0.5c0,0.2-0.2,0.4-0.4,0.4
				c-2.3,0.3-4.7,0.4-7,0.4c-2.3,0-4.7,0.1-7-0.5c-0.3-0.1-0.5-0.4-0.4-0.6C215.9,28.7,216,28.5,216.2,28.5z"/>
		</g>
		<g>
			<line class="st2" x1="202" y1="28.9" x2="212.1" y2="29"/>
			<path class="st3" d="M202,28.4c1.7-0.5,3.4-0.4,5.1-0.4c1.7,0,3.4,0.2,5.1,0.4c0.3,0,0.6,0.3,0.5,0.7c0,0.3-0.3,0.5-0.5,0.5
				c-1.7,0.2-3.4,0.3-5.1,0.4c-1.7,0-3.4,0.1-5.1-0.4c-0.3-0.1-0.5-0.4-0.4-0.8C201.6,28.6,201.8,28.4,202,28.4z"/>
		</g>
		<g>
			<line class="st2" x1="216.2" y1="33.8" x2="223.9" y2="33.9"/>
			<path class="st3" d="M216.2,33.3c1.3-0.6,2.6-0.5,3.9-0.4c1.3,0.1,2.6,0.2,3.9,0.5c0.3,0.1,0.4,0.3,0.4,0.6
				c0,0.2-0.2,0.3-0.4,0.4c-1.3,0.3-2.6,0.4-3.9,0.5c-1.3,0-2.6,0.1-3.9-0.4c-0.3-0.1-0.4-0.5-0.3-0.8
				C216,33.5,216.1,33.4,216.2,33.3z"/>
		</g>
		<g>
			<line class="st2" x1="202" y1="33.8" x2="208.3" y2="33.8"/>
			<path class="st3" d="M202,33.2c1-0.5,2.1-0.4,3.1-0.4c1,0,2.1,0.2,3.1,0.4c0.3,0.1,0.5,0.4,0.5,0.7c-0.1,0.2-0.2,0.4-0.5,0.5
				c-1,0.2-2.1,0.3-3.1,0.4c-1,0-2.1,0.1-3.1-0.4c-0.3-0.1-0.5-0.5-0.3-0.9C201.7,33.4,201.9,33.3,202,33.2z"/>
		</g>
		<g>
			<line class="st2" x1="202" y1="15" x2="230.5" y2="15.1"/>
			<path class="st3" d="M202,14.5c2.4-0.1,4.8-0.2,7.1-0.2l7.1-0.1l7.1-0.1c2.4,0,4.8,0,7.1,0.3c0.4,0.1,0.6,0.4,0.6,0.8
				c0,0.3-0.3,0.5-0.6,0.6c-2.4,0.3-4.8,0.3-7.1,0.3l-7.1-0.1l-7.1-0.2c-2.4-0.1-4.8-0.2-7.1-0.3c-0.3,0-0.4-0.2-0.4-0.5
				C201.6,14.7,201.7,14.5,202,14.5z"/>
		</g>
	</g>
	<g class="st0">
		<path class="st1" d="M39.5,131.8h-35c-0.9,0-1.6-0.7-1.6-1.6v-28.7c0-0.9,0.7-1.6,1.6-1.6h35c0.9,0,1.6,0.7,1.6,1.6v28.7
			C41.1,131.1,40.4,131.8,39.5,131.8z"/>
		<path class="st1" d="M39.5,131.8h-35c-0.9,0-1.6-0.7-1.6-1.6v-28.7c0-0.9,0.7-1.6,1.6-1.6h35c0.9,0,1.6,0.7,1.6,1.6v28.7
			C41.1,131.1,40.4,131.8,39.5,131.8z"/>
		<g>
			<line class="st2" x1="22.2" y1="110.5" x2="36.2" y2="110.5"/>
			<path class="st3" d="M22.2,110c2.3-0.6,4.7-0.4,7-0.4c2.3,0.1,4.7,0.2,7,0.5c0.3,0,0.4,0.3,0.4,0.5c0,0.2-0.2,0.4-0.4,0.4
				c-2.3,0.3-4.7,0.4-7,0.4c-2.3,0-4.7,0.1-7-0.5c-0.3-0.1-0.5-0.4-0.4-0.6C21.8,110.1,22,110,22.2,110z"/>
		</g>
		<g>
			<line class="st2" x1="8" y1="110.4" x2="18.1" y2="110.5"/>
			<path class="st3" d="M8,109.8c1.7-0.5,3.4-0.4,5.1-0.4c1.7,0,3.4,0.2,5.1,0.4c0.3,0,0.6,0.3,0.5,0.7c0,0.3-0.3,0.5-0.5,0.5
				c-1.7,0.2-3.4,0.3-5.1,0.4c-1.7,0-3.4,0.1-5.1-0.4c-0.3-0.1-0.5-0.4-0.4-0.8C7.6,110,7.8,109.9,8,109.8z"/>
		</g>
		<g>
			<line class="st2" x1="22.2" y1="115.3" x2="36.2" y2="115.4"/>
			<path class="st3" d="M22.2,114.8c2.3-0.6,4.7-0.4,7-0.4c2.3,0.1,4.7,0.2,7,0.5c0.3,0,0.4,0.3,0.4,0.5c0,0.2-0.2,0.4-0.4,0.4
				c-2.3,0.3-4.7,0.4-7,0.4c-2.3,0-4.7,0.1-7-0.5c-0.3-0.1-0.5-0.4-0.4-0.6C21.8,115,22,114.9,22.2,114.8z"/>
		</g>
		<g>
			<line class="st2" x1="8" y1="115.3" x2="18.1" y2="115.3"/>
			<path class="st3" d="M8,114.7c1.7-0.5,3.4-0.4,5.1-0.4c1.7,0,3.4,0.2,5.1,0.4c0.3,0,0.6,0.3,0.5,0.7c0,0.3-0.3,0.5-0.5,0.5
				c-1.7,0.2-3.4,0.3-5.1,0.4c-1.7,0-3.4,0.1-5.1-0.4c-0.3-0.1-0.5-0.4-0.4-0.8C7.6,114.9,7.8,114.7,8,114.7z"/>
		</g>
		<g>
			<line class="st2" x1="22.2" y1="120.2" x2="36.2" y2="120.3"/>
			<path class="st3" d="M22.2,119.7c2.3-0.6,4.7-0.4,7-0.4c2.3,0.1,4.7,0.2,7,0.5c0.3,0,0.4,0.3,0.4,0.5c0,0.2-0.2,0.4-0.4,0.4
				c-2.3,0.3-4.7,0.4-7,0.4c-2.3,0-4.7,0.1-7-0.5c-0.3-0.1-0.5-0.4-0.4-0.6C21.8,119.9,22,119.7,22.2,119.7z"/>
		</g>
		<g>
			<line class="st2" x1="8" y1="120.1" x2="18.1" y2="120.2"/>
			<path class="st3" d="M8,119.5c1.7-0.5,3.4-0.4,5.1-0.4c1.7,0,3.4,0.2,5.1,0.4c0.3,0,0.6,0.3,0.5,0.7c0,0.3-0.3,0.5-0.5,0.5
				c-1.7,0.2-3.4,0.3-5.1,0.4c-1.7,0-3.4,0.1-5.1-0.4c-0.3-0.1-0.5-0.4-0.4-0.8C7.6,119.8,7.8,119.6,8,119.5z"/>
		</g>
		<g>
			<line class="st2" x1="22.2" y1="125" x2="29.9" y2="125.1"/>
			<path class="st3" d="M22.2,124.5c1.3-0.6,2.6-0.5,3.9-0.4c1.3,0.1,2.6,0.2,3.9,0.5c0.3,0.1,0.4,0.3,0.4,0.6
				c0,0.2-0.2,0.3-0.4,0.4c-1.3,0.3-2.6,0.4-3.9,0.5c-1.3,0-2.6,0.1-3.9-0.4c-0.3-0.1-0.4-0.5-0.3-0.8
				C21.9,124.7,22,124.6,22.2,124.5z"/>
		</g>
		<g>
			<line class="st2" x1="8" y1="125" x2="14.2" y2="125"/>
			<path class="st3" d="M8,124.4c1-0.5,2.1-0.4,3.1-0.4c1,0,2.1,0.2,3.1,0.4c0.3,0.1,0.5,0.4,0.5,0.7c-0.1,0.2-0.2,0.4-0.5,0.5
				c-1,0.2-2.1,0.3-3.1,0.4c-1,0-2.1,0.1-3.1-0.4c-0.3-0.1-0.5-0.5-0.3-0.9C7.7,124.6,7.8,124.5,8,124.4z"/>
		</g>
		<g>
			<line class="st2" x1="7.9" y1="106.2" x2="36.5" y2="106.3"/>
			<path class="st3" d="M7.9,105.7c2.4-0.1,4.8-0.2,7.1-0.2l7.1-0.1l7.1-0.1c2.4,0,4.8,0,7.1,0.3c0.4,0.1,0.6,0.4,0.6,0.8
				c0,0.3-0.3,0.5-0.6,0.6c-2.4,0.3-4.8,0.3-7.1,0.3l-7.1-0.1l-7.1-0.2c-2.4-0.1-4.8-0.2-7.1-0.3c-0.3,0-0.4-0.2-0.4-0.5
				C7.5,105.9,7.7,105.7,7.9,105.7z"/>
		</g>
	</g>
	<path class="st2" d="M286.8,205.2c-1.6,16.7-11.1,33.3-13.5,35.3c-2.5,2-6.8,0.9-9.9,0.9c-7,0-240.9,0-240.9,0
		c-0.1-0.2-0.1-0.3-0.1-0.3c-6-10.5-12.8-20.6-16.2-32.3c-9.4-32.6,20.7-54.7,40.1-75.6c11.1-12,12-29.2,21.6-41.9
		c13.2-17.5,35.5-26.6,56.9-28c24.5-1.6,45.3,7.2,60.2,27c12.2,16.3,19.2,41.6,38.5,51.4c6.9,3.5,14.9,4,22.4,6
		C270.2,154.3,289.3,179.6,286.8,205.2z"/>
	<g class="st0">
		<path class="st4" d="M45.1,49.6c1.4,0,2.8,0,4.2,0c0.4-1.3,0.7-2.5,1.2-3.6c1-2.4,2-4.8,3.2-7.1c0.4-0.8,0.3-1.3-0.3-2
			c-2-1.8-3.9-3.7-5.8-5.5c3.5-3.5,6.8-6.9,10.2-10.3 M40,50.3c0-0.2,0-0.5,0-0.7c0.1,0,0.3,0,0.4,0 M112.8,21.1
			c0.6,0.3,1.2,0.5,1.8,0.8c0.3,0.1,1.1-0.1,1.4-0.4c1.9-1.9,3.8-3.8,5.6-5.7c5.2,5.3,10.3,10.4,15.6,15.8c-2,1.9-4.2,4-6.3,5.9
			c1.7,4.2,3.3,8,5,12.1c2.8,0,5.9,0,9.1,0c0,0.8,0,1.4,0,1.9c0,6.6,0,13.2,0,20c-3.1,0-6.2,0-9.1,0c-1.7,4.1-3.3,8-5,12.2
			c2.1,1.9,4.3,4,6.5,6.1c-5.3,5.3-10.3,10.4-15.6,15.7c-1.9-1.9-3.7-3.7-5.5-5.7c-0.7-0.8-1.2-0.8-2.2-0.4c-3.4,1.6-6.9,3-10.5,4.6
			c0,2.7,0,5.8,0,8.9c-7.3,0-14.6,0-22,0c0-3,0-6.1,0-8.9c-3.9-1.7-7.5-3.3-11.1-4.9c-0.4-0.2-1.1,0.1-1.5,0.4
			c-1.9,1.9-3.8,3.8-5.7,5.7C58.1,100.1,53,95,47.7,89.6c1.7-1.6,3.6-3.5,5.6-5.3C54,83.5,54,83,53.6,82c-1.6-3.4-3-6.9-4.6-10.5
			c-2.7,0-5.8,0-8.9,0c0-5.6,0-11.1,0-16.7 M62.9,15.2c0.3,0.3,0.6,0.6,0.8,0.9c1.6,1.7,3.3,3.4,5,5.1c0.7,0.8,1.3,0.9,2.3,0.4
			c3.4-1.6,6.9-3,10.5-4.5c0-2.8,0-5.9,0-9c7.3,0,14.6,0,22,0c0,3.1,0,6.1,0,8.9c0.6,0.3,1.2,0.5,1.8,0.8"/>
		<path class="st4" d="M79,47c0.1-0.1,0.2-0.2,0.3-0.3"/>
		<path class="st4" d="M84.3,43.5c2.4-1.1,5.1-1.7,7.9-1.7c10.5,0,19.1,8.5,19.1,19.1s-8.5,19.1-19.1,19.1s-19.1-8.5-19.1-19.1
			c0-4,1.2-7.7,3.3-10.7"/>
	</g>
	<g>
		<path class="st5" d="M137.9,149.3H8.2c-0.9,0-1.7-0.8-1.7-1.7v-1.8c0-0.9,0.8-1.7,1.7-1.7h129.7c0.9,0,1.7,0.8,1.7,1.7v1.8
			C139.6,148.5,138.9,149.3,137.9,149.3z"/>
		<g class="st0">
			<path class="st3" d="M68,171.5c-1,0.8-2.2,1.2-3.3,1.6l-3.5,1.3l-7,2.5l-13.9,5l-14,4.9l-7,2.4l-3.5,1.2
				c-1.2,0.4-2.4,0.7-3.7,0.7c-0.2,0-0.4-0.2-0.4-0.4c0-0.1,0.1-0.2,0.1-0.3c1-0.8,2.1-1.3,3.3-1.8l3.5-1.3l6.9-2.5l13.9-5l14-4.9
				l7-2.5l3.5-1.2c1.2-0.4,2.3-0.8,3.6-0.8c0.3,0,0.6,0.2,0.6,0.6C68.3,171.2,68.2,171.4,68,171.5z"/>
		</g>
		<g class="st0">
			<path class="st3" d="M18.3,151.8c2.2,0.1,4.2,0.7,6.2,1.4l6,1.9c4,1.3,8,2.6,11.9,3.9c4,1.3,7.9,2.6,11.9,4l5.9,2
				c2,0.7,3.9,1.4,5.8,2.6c0.2,0.1,0.3,0.4,0.1,0.6c-0.1,0.1-0.2,0.2-0.4,0.2c-2.2-0.1-4.2-0.7-6.2-1.3l-6-1.9
				c-4-1.2-8-2.5-11.9-3.8c-4-1.3-7.9-2.6-11.9-4l-5.9-2c-2-0.7-3.9-1.4-5.8-2.6c-0.2-0.2-0.3-0.5-0.2-0.7
				C17.9,151.9,18.1,151.8,18.3,151.8z"/>
		</g>
		<line class="st5" x1="9" y1="241.1" x2="9" y2="149.3"/>
		<g class="st0">
			<path class="st3" d="M64.6,221.7c-4.1,2.1-8.5,3.5-12.8,5.1l-12.9,4.8l-13,4.6l-6.5,2.3c-2.2,0.8-4.3,1.6-6.6,1.9
				c-0.3,0-0.6-0.2-0.6-0.5c0-0.2,0.1-0.4,0.2-0.5c2-1.3,4.2-2,6.3-2.8l6.5-2.4l12.9-4.7l13-4.6c4.3-1.5,8.6-3.2,13.1-4.2
				c0.3-0.1,0.6,0.1,0.7,0.4C64.9,221.3,64.8,221.6,64.6,221.7z"/>
		</g>
		<g class="st0">
			<path class="st3" d="M13.8,193.1c2.4,0.6,4.7,1.6,6.9,2.5l6.8,2.9l13.6,5.7l13.5,5.9l6.8,2.9c2.2,1,4.6,1.8,6.6,3.4
				c0.3,0.2,0.3,0.6,0.1,0.8c-0.1,0.2-0.4,0.3-0.6,0.2c-2.5-0.4-4.7-1.5-7-2.4l-6.8-2.9l-13.5-5.8l-13.5-5.9l-6.7-3
				c-2.2-1-4.5-2-6.6-3.3c-0.3-0.2-0.4-0.6-0.2-0.8C13.3,193.1,13.6,193,13.8,193.1z"/>
		</g>
		<g class="st0">
			<path class="st3" d="M13.2,219.8c2.8-0.1,5.1,1.1,7.6,1.9l7.3,2.6l14.6,5.2l14.6,5.3c4.9,1.8,9.7,3.6,14.5,5.4l-1.3,0.9v-91.9
				c0-0.6,0.4-1,1-1s1,0.4,1,1v91.9c0,0.6-0.4,1-1,1c-0.1,0-0.2,0-0.3-0.1l0,0c-4.9-1.7-9.8-3.4-14.7-5.1l-14.6-5.2l-14.6-5.4
				l-7.3-2.7c-2.4-0.9-4.9-1.5-7-3.4c-0.1-0.1-0.1-0.3,0-0.4C13,219.9,13.1,219.8,13.2,219.8z"/>
		</g>
		<g class="st0">
			<path class="st3" d="M67.8,193.7c-2,1.5-4.3,2.4-6.5,3.4l-6.7,2.9l-13.3,5.9c-4.5,1.9-8.9,3.8-13.4,5.7l-6.7,2.8
				c-2.2,0.9-4.5,1.8-7,2.2c-0.2,0-0.4-0.1-0.4-0.3c0-0.1,0-0.3,0.1-0.4c2-1.4,4.2-2.5,6.4-3.5l6.7-2.9c4.4-2,8.9-3.9,13.4-5.8
				l13.4-5.7l6.7-2.8c2.2-0.9,4.4-2,6.9-2.4c0.3,0,0.5,0.1,0.5,0.4C68,193.4,67.9,193.6,67.8,193.7z"/>
		</g>
		<g class="st0">
			<path class="st3" d="M15.2,171.4c2.3,0.2,4.4,1,6.5,1.7l6.3,2.2l12.5,4.4l12.5,4.6l6.2,2.3c2.1,0.8,4.2,1.5,6.1,2.7
				c0.2,0.1,0.3,0.4,0.1,0.6c-0.1,0.2-0.3,0.2-0.4,0.2c-2.2-0.3-4.3-1-6.4-1.8l-6.3-2.2l-12.6-4.4l-12.5-4.5l-6.2-2.3
				c-2.1-0.8-4.2-1.5-6.1-2.8c-0.2-0.1-0.3-0.4-0.1-0.7C14.8,171.4,15,171.4,15.2,171.4z"/>
		</g>
		<g class="st0">
			<path class="st3" d="M62.6,152.8c-1.9,1.1-4,1.8-6,2.5l-6.2,2.1l-12.3,4.1c-4.1,1.3-8.2,2.7-12.4,4l-6.2,2
				c-2.1,0.7-4.1,1.3-6.4,1.4c-0.2,0-0.4-0.1-0.4-0.3c0-0.1,0.1-0.2,0.2-0.3c1.9-1.3,3.9-2,6-2.7l6.1-2.1c4.1-1.4,8.2-2.8,12.3-4.1
				l12.4-4l6.2-2c2.1-0.7,4.1-1.3,6.3-1.6c0.3,0,0.7,0.2,0.7,0.6C63,152.5,62.8,152.7,62.6,152.8z"/>
		</g>
		<g class="st0">
			<path class="st3" d="M128.5,221.4c-1.9,1.4-4.2,2-6.3,2.8l-6.5,2.4l-13,4.7l-13.1,4.6l-6.5,2.3c-2.2,0.8-4.4,1.4-6.7,1.8
				c-0.3,0.1-0.6-0.2-0.7-0.5c0-0.2,0.1-0.5,0.3-0.6c2-1.2,4.2-2,6.3-2.9l6.5-2.4l13-4.8l13-4.7l6.5-2.3c2.2-0.7,4.3-1.7,6.7-1.9
				c0.5,0,0.8,0.3,0.9,0.8C128.8,221,128.7,221.2,128.5,221.4z"/>
		</g>
		<g class="st0">
			<path class="st3" d="M76.9,193.7c2.5,0.3,4.7,1.3,7,2.2l6.7,2.8c4.5,1.9,8.9,3.8,13.4,5.7l13.3,5.8l6.7,2.9
				c2.2,1,4.5,1.8,6.5,3.4c0.2,0.2,0.3,0.5,0.1,0.8c-0.1,0.2-0.3,0.2-0.5,0.2c-2.5-0.4-4.7-1.5-6.9-2.4l-6.7-2.8l-13.4-5.7
				c-4.5-1.9-8.9-3.8-13.4-5.8l-6.7-3c-2.2-1-4.5-1.9-6.4-3.5c-0.1-0.1-0.2-0.3,0-0.5C76.7,193.8,76.8,193.7,76.9,193.7z"/>
		</g>
		<g class="st0">
			<path class="st3" d="M128.4,172.4c-2,1-4.1,1.8-6.3,2.5l-6.4,2.3l-12.7,4.6l-12.8,4.5l-6.4,2.2c-2.1,0.7-4.2,1.7-6.5,1.8
				c-0.3,0-0.5-0.2-0.5-0.4c0-0.2,0.1-0.3,0.2-0.4c1.9-1.3,4.1-1.9,6.2-2.7l6.4-2.3l12.7-4.6l12.7-4.5l6.4-2.3
				c2.1-0.8,4.2-1.5,6.5-2c0.4-0.1,0.7,0.2,0.8,0.5C128.8,171.9,128.7,172.2,128.4,172.4z"/>
		</g>
		<g class="st0">
			<path class="st3" d="M81.1,152c2.2,0.3,4.2,0.9,6.3,1.5l6.1,1.9l12.2,3.9l12.2,4l6.1,2c2,0.7,4,1.4,6,2.4c0.3,0.2,0.5,0.6,0.3,1
				c-0.1,0.3-0.4,0.4-0.7,0.4c-2.1-0.3-4.2-0.9-6.2-1.6l-6.1-2l-12.2-4l-12.1-4.1l-6.1-2.1c-2-0.7-4-1.4-5.9-2.5
				c-0.2-0.1-0.3-0.4-0.2-0.6C80.8,152.1,80.9,152,81.1,152z"/>
		</g>
		<g class="st0">
			<path class="st3" d="M132.9,241.1l-0.2-21.5l0-21.5l0.1-21.5l0-10.7l0-5.4c0-1.8,0.1-3.6,0.6-5.4c0.1-0.3,0.3-0.4,0.6-0.4
				c0.2,0,0.3,0.2,0.4,0.4c0.5,1.8,0.6,3.6,0.6,5.4l0,5.4l0,10.7l0.1,21.5l0,21.5l-0.2,21.5c0,0.6-0.5,1-1,1
				C133.4,242.1,132.9,241.7,132.9,241.1z"/>
		</g>
		<g class="st0">
			<path class="st3" d="M77.4,220.2c2.4,0.4,4.6,1.2,6.8,2l6.7,2.4l13.4,4.7l13.3,4.9l6.7,2.4c2.2,0.8,4.5,1.5,6.5,2.9
				c0.3,0.2,0.3,0.5,0.1,0.8c-0.1,0.2-0.3,0.2-0.5,0.2c-2.4-0.2-4.6-1.1-6.9-1.9l-6.7-2.4l-13.4-4.8l-13.3-4.9l-6.7-2.5
				c-2.2-0.8-4.4-1.6-6.5-2.8c-0.3-0.2-0.3-0.5-0.2-0.7C77,220.3,77.2,220.2,77.4,220.2z"/>
		</g>
		<g class="st0">
			<path class="st3" d="M127.3,195.2c-1.8,1.6-4,2.2-6,3.2l-6.2,2.7l-12.5,5.4L90,211.7l-6.3,2.6c-2.1,0.9-4.2,1.7-6.4,2.2
				c-0.3,0.1-0.5-0.1-0.6-0.4c0-0.2,0-0.4,0.2-0.5c1.9-1.3,4-2.2,6.1-3.1l6.2-2.7l12.4-5.5l12.5-5.4l6.3-2.6c2.1-0.8,4.1-2,6.5-2.2
				c0.3,0,0.6,0.2,0.6,0.5C127.5,194.9,127.4,195,127.3,195.2z"/>
		</g>
		<g class="st0">
			<path class="st3" d="M78.7,171.8c2.3,0.2,4.5,0.9,6.6,1.7l6.4,2.2c4.3,1.5,8.6,3,12.8,4.5l12.8,4.7c4.2,1.6,8.6,3,12.6,5.1
				c0.3,0.2,0.4,0.5,0.2,0.8c-0.1,0.2-0.4,0.4-0.6,0.3c-4.5-0.9-8.7-2.6-13-4l-12.8-4.5c-4.3-1.5-8.5-3-12.8-4.6l-6.4-2.4
				c-2.1-0.8-4.2-1.6-6.2-2.9c-0.2-0.1-0.3-0.4-0.1-0.6C78.3,171.8,78.5,171.8,78.7,171.8z"/>
		</g>
		<g class="st0">
			<path class="st3" d="M125.6,152.3c-0.9,0.7-1.9,1.1-3,1.4l-3.1,1.1l-6.2,2.1l-12.4,4.2l-12.4,4.1l-6.2,2
				c-2.1,0.7-4.1,1.5-6.3,1.7c-0.3,0-0.6-0.2-0.6-0.5c0-0.2,0.1-0.4,0.3-0.5c1.9-1.2,4-1.8,6.1-2.5l6.2-2.1l12.4-4.2l12.4-4.1
				l6.2-2.1l3.1-1c1-0.3,2.1-0.6,3.2-0.7c0.3,0,0.6,0.3,0.6,0.6C125.8,152,125.7,152.2,125.6,152.3z"/>
		</g>
	</g>
	<g>
		<path class="st5" d="M236.5,149.3H106.9c-0.9,0-1.7-0.8-1.7-1.7v-1.8c0-0.9,0.8-1.7,1.7-1.7h129.7c0.9,0,1.7,0.8,1.7,1.7v1.8
			C238.2,148.5,237.5,149.3,236.5,149.3z"/>
		<g class="st0">
			<path class="st3" d="M166.7,171.5c-1,0.8-2.2,1.2-3.3,1.6l-3.5,1.3l-7,2.5l-13.9,5l-14,4.9l-7,2.4l-3.5,1.2
				c-1.2,0.4-2.4,0.7-3.7,0.7c-0.2,0-0.4-0.2-0.4-0.4c0-0.1,0.1-0.2,0.1-0.3c1-0.8,2.1-1.3,3.3-1.8l3.5-1.3l6.9-2.5l13.9-5l14-4.9
				l7-2.5l3.5-1.2c1.2-0.4,2.3-0.8,3.6-0.8c0.3,0,0.6,0.2,0.6,0.6C166.9,171.2,166.8,171.4,166.7,171.5z"/>
		</g>
		<g class="st0">
			<path class="st3" d="M116.9,151.8c2.2,0.1,4.2,0.7,6.2,1.4l6,1.9c4,1.3,8,2.6,11.9,3.9c4,1.3,7.9,2.6,11.9,4l5.9,2
				c2,0.7,3.9,1.4,5.8,2.6c0.2,0.1,0.3,0.4,0.1,0.6c-0.1,0.1-0.2,0.2-0.4,0.2c-2.2-0.1-4.2-0.7-6.2-1.3l-6-1.9
				c-4-1.2-8-2.5-11.9-3.8c-4-1.3-7.9-2.6-11.9-4l-5.9-2c-2-0.7-3.9-1.4-5.8-2.6c-0.2-0.2-0.3-0.5-0.2-0.7
				C116.6,151.9,116.7,151.8,116.9,151.8z"/>
		</g>
		<line class="st5" x1="107.6" y1="241.1" x2="107.6" y2="149.3"/>
		<g class="st0">
			<path class="st3" d="M163.2,221.7c-4.1,2.1-8.5,3.5-12.8,5.1l-12.9,4.8l-13,4.6l-6.5,2.3c-2.2,0.8-4.3,1.6-6.6,1.9
				c-0.3,0-0.6-0.2-0.6-0.5c0-0.2,0.1-0.4,0.2-0.5c2-1.3,4.2-2,6.3-2.8l6.5-2.4l12.9-4.7l13-4.6c4.3-1.5,8.6-3.2,13.1-4.2
				c0.3-0.1,0.6,0.1,0.7,0.4C163.6,221.3,163.4,221.6,163.2,221.7z"/>
		</g>
		<g class="st0">
			<path class="st3" d="M112.4,193.1c2.4,0.6,4.7,1.6,6.9,2.5l6.8,2.9l13.6,5.7l13.5,5.9l6.8,2.9c2.2,1,4.6,1.8,6.6,3.4
				c0.3,0.2,0.3,0.6,0.1,0.8c-0.1,0.2-0.4,0.3-0.6,0.2c-2.5-0.4-4.7-1.5-7-2.4l-6.8-2.9l-13.5-5.8l-13.5-5.9l-6.7-3
				c-2.2-1-4.5-2-6.6-3.3c-0.3-0.2-0.4-0.6-0.2-0.8C111.9,193.1,112.2,193,112.4,193.1z"/>
		</g>
		<g class="st0">
			<path class="st3" d="M111.8,219.8c2.8-0.1,5.1,1.1,7.6,1.9l7.3,2.6l14.6,5.2l14.6,5.3c4.9,1.8,9.7,3.6,14.5,5.4l-1.3,0.9v-91.9
				c0-0.6,0.4-1,1-1c0.6,0,1,0.4,1,1v91.9c0,0.6-0.4,1-1,1c-0.1,0-0.2,0-0.3-0.1l0,0c-4.9-1.7-9.8-3.4-14.7-5.1l-14.6-5.2l-14.6-5.4
				l-7.3-2.7c-2.4-0.9-4.9-1.5-7-3.4c-0.1-0.1-0.1-0.3,0-0.4C111.6,219.9,111.7,219.8,111.8,219.8z"/>
		</g>
		<g class="st0">
			<path class="st3" d="M166.4,193.7c-2,1.5-4.3,2.4-6.5,3.4l-6.7,2.9l-13.3,5.9c-4.5,1.9-8.9,3.8-13.4,5.7l-6.7,2.8
				c-2.2,0.9-4.5,1.8-7,2.2c-0.2,0-0.4-0.1-0.4-0.3c0-0.1,0-0.3,0.1-0.4c2-1.4,4.2-2.5,6.4-3.5l6.7-2.9c4.4-2,8.9-3.9,13.4-5.8
				l13.4-5.7l6.7-2.8c2.2-0.9,4.4-2,6.9-2.4c0.3,0,0.5,0.1,0.5,0.4C166.6,193.4,166.6,193.6,166.4,193.7z"/>
		</g>
		<g class="st0">
			<path class="st3" d="M113.8,171.4c2.3,0.2,4.4,1,6.5,1.7l6.3,2.2l12.5,4.4l12.5,4.6l6.2,2.3c2.1,0.8,4.2,1.5,6.1,2.7
				c0.2,0.1,0.3,0.4,0.1,0.6c-0.1,0.2-0.3,0.2-0.4,0.2c-2.2-0.3-4.3-1-6.4-1.8l-6.3-2.2l-12.6-4.4l-12.5-4.5l-6.2-2.3
				c-2.1-0.8-4.2-1.5-6.1-2.8c-0.2-0.1-0.3-0.4-0.1-0.7C113.5,171.4,113.6,171.4,113.8,171.4z"/>
		</g>
		<g class="st0">
			<path class="st3" d="M161.2,152.8c-1.9,1.1-4,1.8-6,2.5l-6.2,2.1l-12.3,4.1c-4.1,1.3-8.2,2.7-12.4,4l-6.2,2
				c-2.1,0.7-4.1,1.3-6.4,1.4c-0.2,0-0.4-0.1-0.4-0.3c0-0.1,0.1-0.2,0.2-0.3c1.9-1.3,3.9-2,6-2.7l6.1-2.1c4.1-1.4,8.2-2.8,12.3-4.1
				l12.4-4l6.2-2c2.1-0.7,4.1-1.3,6.3-1.6c0.3,0,0.7,0.2,0.7,0.6C161.6,152.5,161.5,152.7,161.2,152.8z"/>
		</g>
		<g class="st0">
			<path class="st3" d="M227.1,221.4c-1.9,1.4-4.2,2-6.3,2.8l-6.5,2.4l-13,4.7l-13.1,4.6l-6.5,2.3c-2.2,0.8-4.4,1.4-6.7,1.8
				c-0.3,0.1-0.6-0.2-0.7-0.5c0-0.2,0.1-0.5,0.3-0.6c2-1.2,4.2-2,6.3-2.9l6.5-2.4l13-4.8l13-4.7l6.5-2.3c2.2-0.7,4.3-1.7,6.7-1.9
				c0.5,0,0.8,0.3,0.9,0.8C227.5,221,227.3,221.2,227.1,221.4z"/>
		</g>
		<g class="st0">
			<path class="st3" d="M175.6,193.7c2.5,0.3,4.7,1.3,7,2.2l6.7,2.8c4.5,1.9,8.9,3.8,13.4,5.7l13.3,5.8l6.7,2.9
				c2.2,1,4.5,1.8,6.5,3.4c0.2,0.2,0.3,0.5,0.1,0.8c-0.1,0.2-0.3,0.2-0.5,0.2c-2.5-0.4-4.7-1.5-6.9-2.4l-6.7-2.8l-13.4-5.7
				c-4.5-1.9-8.9-3.8-13.4-5.8l-6.7-3c-2.2-1-4.5-1.9-6.4-3.5c-0.1-0.1-0.2-0.3,0-0.5C175.3,193.8,175.5,193.7,175.6,193.7z"/>
		</g>
		<g class="st0">
			<path class="st3" d="M227,172.4c-2,1-4.1,1.8-6.3,2.5l-6.4,2.3l-12.7,4.6l-12.8,4.5l-6.4,2.2c-2.1,0.7-4.2,1.7-6.5,1.8
				c-0.3,0-0.5-0.2-0.5-0.4c0-0.2,0.1-0.3,0.2-0.4c1.9-1.3,4.1-1.9,6.2-2.7l6.4-2.3l12.7-4.6l12.7-4.5l6.4-2.3
				c2.1-0.8,4.2-1.5,6.5-2c0.4-0.1,0.7,0.2,0.8,0.5C227.5,171.9,227.3,172.2,227,172.4z"/>
		</g>
		<g class="st0">
			<path class="st3" d="M179.7,152c2.2,0.3,4.2,0.9,6.3,1.5l6.1,1.9l12.2,3.9l12.2,4l6.1,2c2,0.7,4,1.4,6,2.4c0.3,0.2,0.5,0.6,0.3,1
				c-0.1,0.3-0.4,0.4-0.7,0.4c-2.1-0.3-4.2-0.9-6.2-1.6l-6.1-2l-12.2-4l-12.1-4.1l-6.1-2.1c-2-0.7-4-1.4-5.9-2.5
				c-0.2-0.1-0.3-0.4-0.2-0.6C179.4,152.1,179.6,152,179.7,152z"/>
		</g>
		<g class="st0">
			<path class="st3" d="M231.6,241.1l-0.2-21.5l0-21.5l0.1-21.5l0-10.7l0-5.4c0-1.8,0.1-3.6,0.6-5.4c0.1-0.3,0.3-0.4,0.6-0.4
				c0.2,0,0.3,0.2,0.4,0.4c0.5,1.8,0.6,3.6,0.6,5.4l0,5.4l0,10.7l0.1,21.5l0,21.5l-0.2,21.5c0,0.6-0.5,1-1,1
				C232,242.1,231.6,241.7,231.6,241.1z"/>
		</g>
		<g class="st0">
			<path class="st3" d="M176,220.2c2.4,0.4,4.6,1.2,6.8,2l6.7,2.4l13.4,4.7l13.3,4.9l6.7,2.4c2.2,0.8,4.5,1.5,6.5,2.9
				c0.3,0.2,0.3,0.5,0.1,0.8c-0.1,0.2-0.3,0.2-0.5,0.2c-2.4-0.2-4.6-1.1-6.9-1.9l-6.7-2.4l-13.4-4.8l-13.3-4.9l-6.7-2.5
				c-2.2-0.8-4.4-1.6-6.5-2.8c-0.3-0.2-0.3-0.5-0.2-0.7C175.6,220.3,175.8,220.2,176,220.2z"/>
		</g>
		<g class="st0">
			<path class="st3" d="M225.9,195.2c-1.8,1.6-4,2.2-6,3.2l-6.2,2.7l-12.5,5.4l-12.5,5.3l-6.3,2.6c-2.1,0.9-4.2,1.7-6.4,2.2
				c-0.3,0.1-0.5-0.1-0.6-0.4c0-0.2,0-0.4,0.2-0.5c1.9-1.3,4-2.2,6.1-3.1l6.2-2.7l12.4-5.5l12.5-5.4l6.3-2.6c2.1-0.8,4.1-2,6.5-2.2
				c0.3,0,0.6,0.2,0.6,0.5C226.1,194.9,226,195,225.9,195.2z"/>
		</g>
		<g class="st0">
			<path class="st3" d="M177.3,171.8c2.3,0.2,4.5,0.9,6.6,1.7l6.4,2.2c4.3,1.5,8.6,3,12.8,4.5l12.8,4.7c4.2,1.6,8.6,3,12.6,5.1
				c0.3,0.2,0.4,0.5,0.2,0.8c-0.1,0.2-0.4,0.4-0.6,0.3c-4.5-0.9-8.7-2.6-13-4l-12.8-4.5c-4.3-1.5-8.5-3-12.8-4.6l-6.4-2.4
				c-2.1-0.8-4.2-1.6-6.2-2.9c-0.2-0.1-0.3-0.4-0.1-0.6C176.9,171.8,177.1,171.8,177.3,171.8z"/>
		</g>
		<g class="st0">
			<path class="st3" d="M224.2,152.3c-0.9,0.7-1.9,1.1-3,1.4l-3.1,1.1l-6.2,2.1l-12.4,4.2l-12.4,4.1l-6.2,2
				c-2.1,0.7-4.1,1.5-6.3,1.7c-0.3,0-0.6-0.2-0.6-0.5c0-0.2,0.1-0.4,0.3-0.5c1.9-1.2,4-1.8,6.1-2.5l6.2-2.1l12.4-4.2l12.4-4.1
				l6.2-2.1l3.1-1c1-0.3,2.1-0.6,3.2-0.7c0.3,0,0.6,0.3,0.6,0.6C224.4,152,224.3,152.2,224.2,152.3z"/>
		</g>
	</g>
	<circle class="st6" cx="243.8" cy="38.8" r="1.9"/>
	<circle class="st7" cx="239.1" cy="64.6" r="1.9"/>
	<g>
		<path class="st8" d="M130.7,191.6"/>
	</g>
	<path class="st9" d="M203.3,141.5c0,0.6-0.1,1.3-0.1,1.9"/>
	<path class="st10" d="M203.4,52.6v165.8c0,12.7-10.3,23-23,23h-69.7c-10.5,0-19.3-7-22.1-16.5c-0.6-2.1-0.9-4.2-0.9,23.5V82.6
		c0-30.2,0.1-32.5,0.3-33.7c0,0,0-0.1,0-0.1c1.8-10.9,11.3-19.1,22.7-19.1h69.7c11.4,0,20.8,8.3,22.7,19.1
		C203.3,50,203.4,51.3,203.4,52.6z"/>
	<g>
		<path class="st5" d="M124,81.5v1.7c0,3-2.4,5.5-5.5,5.5h-2.7"/>
		<path class="st5" d="M103.1,88.6c-2.8-0.2-5.1-2.6-5.1-5.4V68.4c0-3,2.4-5.5,5.5-5.5h15.1c3,0,5.5,2.4,5.5,5.5v7.7"/>
	</g>
	<g>
		<path class="st5" d="M156.4,81.5v1.7c0,3-2.4,5.5-5.5,5.5h-2.7"/>
		<path class="st5" d="M135.4,88.6c-2.8-0.2-5.1-2.6-5.1-5.4V68.4c0-3,2.4-5.5,5.5-5.5h15.1c3,0,5.5,2.4,5.5,5.5v7.7"/>
	</g>
	<g>
		<path class="st5" d="M190.9,81.5v1.7c0,3-2.4,5.5-5.5,5.5h-2.7"/>
		<path class="st5" d="M170,88.6c-2.8-0.2-5.1-2.6-5.1-5.4V68.4c0-3,2.4-5.5,5.5-5.5h15.1c3,0,5.5,2.4,5.5,5.5v7.7"/>
	</g>
	<g>
		<path class="st5" d="M124,117.5v1.7c0,3-2.4,5.5-5.5,5.5h-2.7"/>
		<path class="st5" d="M103.1,124.6c-2.8-0.2-5.1-2.6-5.1-5.4v-14.8c0-3,2.4-5.5,5.5-5.5h15.1c3,0,5.5,2.4,5.5,5.5v7.7"/>
	</g>
	<g>
		<path class="st5" d="M156.4,117.5v1.7c0,3-2.4,5.5-5.5,5.5h-2.7"/>
		<g class="st0">
			<path class="st3" d="M135.3,125.6c-1.9-0.1-3.7-1.1-4.8-2.6c-0.6-0.8-1-1.6-1.1-2.5c-0.1-0.5-0.1-0.9-0.1-1.4l0-1.2l0-9.4l0-2.4
				c0-0.8,0-1.5,0.1-2.5c0.2-1.9,1.3-3.6,2.9-4.6c0.8-0.5,1.7-0.8,2.6-0.9c1-0.1,1.7,0,2.5-0.1c1.6,0,3.1,0,4.7,0.4
				c0.3,0.1,0.5,0.4,0.4,0.7c-0.1,0.2-0.2,0.3-0.4,0.4c-1.6,0.4-3.1,0.4-4.7,0.4c-0.8,0-1.6,0-2.2,0.1c-0.6,0.1-1.3,0.3-1.8,0.7
				c-1.1,0.7-1.8,1.9-2,3.2c-0.1,0.6,0,1.5,0,2.2l0,2.4l0,9.4l0,1.2c0,0.4,0,0.6,0.1,1c0.1,0.6,0.4,1.2,0.8,1.7
				c0.7,1.1,2,1.7,3.2,1.8l0,0c0.6,0,1,0.5,0.9,1.1C136.3,125.2,135.9,125.6,135.3,125.6z"/>
		</g>
	</g>
	<g>
		<path class="st5" d="M190.9,117.5v1.7c0,3-2.4,5.5-5.5,5.5h-2.7"/>
		<path class="st5" d="M170,124.6c-2.8-0.2-5.1-2.6-5.1-5.4v-14.8c0-3,2.4-5.5,5.5-5.5h15.1c3,0,5.5,2.4,5.5,5.5v7.7"/>
	</g>
	<g>
		<path class="st5" d="M124,152.5v1.7c0,3-2.4,5.5-5.5,5.5h-2.7"/>
		<path class="st5" d="M103.1,159.6c-2.8-0.2-5.1-2.6-5.1-5.4v-14.8c0-3,2.4-5.5,5.5-5.5h15.1c3,0,5.5,2.4,5.5,5.5v7.7"/>
	</g>
	<g>
		<path class="st5" d="M124,188.5v1.7c0,3-2.4,5.5-5.5,5.5h-2.7"/>
		<path class="st5" d="M103.1,195.6c-2.8-0.2-5.1-2.6-5.1-5.4v-14.8c0-3,2.4-5.5,5.5-5.5h15.1c3,0,5.5,2.4,5.5,5.5v7.7"/>
	</g>
	<g>
		<path class="st5" d="M190.9,152.5v1.7c0,3-2.4,5.5-5.5,5.5h-2.7"/>
		<path class="st5" d="M170,159.6c-2.8-0.2-5.1-2.6-5.1-5.4v-14.8c0-3,2.4-5.5,5.5-5.5h15.1c3,0,5.5,2.4,5.5,5.5v7.7"/>
	</g>
	<path class="st2" d="M204.7,215.8v3.1c0,12.7-10.3,23-23,23H112c-10.5,0-19.3-7-22.1-16.5v-9.6H204.7z"/>
	<path class="st2" d="M203.1,48.7H88c1.8-10.9,11.3-19.1,22.7-19.1h69.7C191.8,29.6,201.2,37.8,203.1,48.7z"/>
	<g>
		<g>
			<path class="st11" d="M86.5,119.1c-0.1-0.2,0-0.4,0-0.6c0.1-0.2,0.1-0.4,0.3-0.6c0.3-0.5,0.9-0.6,1.4-0.3
				c0.1,0.1,0.2,0.2,0.3,0.3c0.1,0.2,0.2,0.4,0.3,0.6c0.1,0.2,0.1,0.4,0,0.6c-0.2,0.6-0.9,1-1.5,0.8
				C86.9,119.8,86.6,119.4,86.5,119.1z"/>
		</g>
		<g>
			<path class="st11" d="M204.2,121.3c0.9,13.4,0.6,26.9,0.7,40.3l0,40.3l0,10.1l0,5c0,1.6,0,3.5-0.3,5.3c-0.6,3.5-1.9,7-3.9,9.9
				c-2,3-4.7,5.5-7.7,7.3c-3.1,1.8-6.6,3-10.1,3.4c-0.9,0.1-1.8,0.1-2.7,0.1l-2.5,0l-5,0l-20.1,0l-40.3,0c-1.6,0-3.5,0-5.3-0.3
				c-1.8-0.3-3.5-0.7-5.2-1.4c-3.3-1.3-6.4-3.3-8.9-5.9c-2.5-2.6-4.4-5.7-5.5-9.1c-0.6-1.7-1-3.5-1.1-5.2c-0.1-0.9-0.1-1.8-0.1-2.7
				l0-2.5l0-40.3l0-20.1l0-10.1c0-3.4-0.1-6.7,0.7-10.1c0.1-0.4,0.5-0.6,0.9-0.5c0.3,0.1,0.5,0.3,0.5,0.5c0.8,3.4,0.7,6.7,0.7,10.1
				l0,10.1l0,20.1l0,40.3l0,2.5c0,0.8,0,1.6,0.1,2.3c0.2,1.6,0.5,3.1,1,4.6c1,3,2.7,5.7,4.8,8c2.2,2.3,4.8,4,7.7,5.2
				c1.5,0.6,3,1,4.5,1.2c1.6,0.2,3.1,0.3,4.8,0.2l40.3,0l20.1,0l5,0l2.5,0c0.8,0,1.6,0,2.4-0.1c3.1-0.3,6.1-1.3,8.8-2.9
				c2.7-1.6,5-3.8,6.8-6.4c1.7-2.6,2.9-5.6,3.4-8.7c0.3-1.6,0.3-3.1,0.3-4.8l0-5l0-10.1l0-40.3c0.1-13.4-0.3-26.9,0.7-40.3
				c0-0.5,0.4-0.8,0.9-0.8C203.9,120.6,204.2,120.9,204.2,121.3z"/>
		</g>
		<g>
			<path class="st11" d="M86.8,113c-0.2-5.3-0.4-10.6-0.6-15.9c-0.1-5.3-0.1-10.6-0.1-15.9l0-15.9l0-7.9l0-4c0-0.6,0-1.4,0-2.1
				c0-0.7,0.1-1.4,0.2-2.1c0.7-5.6,3.5-10.9,7.7-14.7c2.1-1.9,4.5-3.5,7.1-4.6c2.6-1.1,5.4-1.7,8.2-1.9c1.5-0.1,2.7,0,4.1,0l4,0
				l7.9,0l15.9,0l31.8,0c2.7,0,5.3,0,8,0c2.8,0.1,5.6,0.6,8.3,1.7c5.3,2.1,9.8,6,12.5,11c1.4,2.5,2.3,5.2,2.8,8
				c0.2,1.4,0.3,2.8,0.3,4.2l0,4l0,15.9l0,15.9l0,7.9c0,2.6,0,5.3-0.7,7.9c-0.1,0.4-0.5,0.6-0.9,0.5c-0.3-0.1-0.5-0.3-0.5-0.5
				c-0.7-2.6-0.8-5.3-0.7-7.9l0-7.9l0-15.9l0-15.9l0-4c0-1.3-0.1-2.5-0.3-3.7c-0.4-2.4-1.2-4.8-2.4-7c-2.4-4.3-6.3-7.8-11-9.5
				c-2.3-0.9-4.8-1.4-7.2-1.5l-7.9,0l-31.8,0l-31.7,0c-2.5,0.1-4.9,0.7-7.2,1.6c-2.3,1-4.4,2.3-6.2,4c-3.7,3.3-6.1,8-6.8,12.9
				c-0.1,0.6-0.1,1.2-0.2,1.8c0,0.6,0,1.2,0,1.9l0,4l0,7.9l0,15.9c0,5.3,0,10.6-0.1,15.9c-0.2,5.3-0.3,10.6-0.6,15.9
				c0,0.5-0.4,0.8-0.9,0.8C87.2,113.8,86.9,113.5,86.8,113z"/>
		</g>
		<g>
			<path class="st11" d="M137.8,38.6c1.4-0.3,2.7-0.4,4.1-0.5c1.4-0.1,2.7-0.1,4.1-0.1c2.7,0,5.4,0.2,8.1,0.6
				c0.5,0.1,0.9,0.5,0.8,1.1c-0.1,0.4-0.4,0.7-0.8,0.8c-2.7,0.4-5.4,0.5-8.1,0.6c-1.4,0-2.7,0-4.1-0.1c-1.4-0.1-2.7-0.2-4.1-0.5
				c-0.5-0.1-0.8-0.6-0.7-1.1C137.1,38.9,137.4,38.7,137.8,38.6z"/>
		</g>
		<g>
			<path class="st11" d="M152.3,232.7c-0.7,1.6-2.3,3-4,3.6c-1.8,0.6-3.8,0.5-5.6-0.2c-1.8-0.7-3.3-2-4.3-3.7
				c-1-1.6-1.4-3.6-1.1-5.5c0.3-1.9,1.2-3.6,2.5-4.9c1.3-1.3,3.1-2.1,4.9-2.3c1.8-0.2,3.7,0.2,5.2,1.2c1.5,1,2.6,2.5,3.1,4.1
				c0.1,0.3-0.1,0.6-0.4,0.7c-0.2,0.1-0.5,0-0.6-0.2l0,0c-1.5-2.6-4.4-3.9-7-3.4c-1.3,0.2-2.5,0.9-3.4,1.8c-0.9,1-1.4,2.2-1.5,3.4
				c-0.3,2.5,1.3,5.1,3.6,6c0.6,0.2,1.2,0.4,1.8,0.4c0.6,0.1,1.3,0,1.9-0.1c1.2-0.3,2.4-0.8,3.6-1.7l0,0c0.3-0.3,0.8-0.2,1.1,0.1
				C152.4,232.1,152.4,232.4,152.3,232.7z"/>
		</g>
		<g>
			<path class="st11" d="M191.6,215c1.9-0.4,3.8-0.6,5.8-0.7c1.9-0.1,3.8-0.2,5.8-0.1c0.8,0,1.5,0.8,1.4,1.6c0,0.8-0.7,1.4-1.4,1.4
				c-1.9,0.1-3.8,0.1-5.8-0.1c-1.9-0.1-3.8-0.3-5.8-0.7c-0.4-0.1-0.6-0.5-0.5-0.9C191.1,215.3,191.3,215.1,191.6,215z"/>
		</g>
		<g>
			<path class="st11" d="M171.7,215.1c0.5-0.4,1.1-0.5,1.6-0.6c0.5-0.1,1.1-0.2,1.6,0.4c0.4,0.5,0.4,1.1,0,1.6
				c-0.5,0.6-1.1,0.5-1.6,0.4c-0.5-0.1-1.1-0.3-1.6-0.6c-0.3-0.2-0.4-0.7-0.2-1C171.6,215.2,171.7,215.2,171.7,215.1z"/>
		</g>
		<g>
			<path class="st11" d="M87.8,214.2c12.6-0.2,25.1-0.2,37.7-0.2l18.9,0.1c6.3,0.1,12.6-0.1,18.9,0.9c0.3,0.1,0.5,0.4,0.5,0.7
				c0,0.3-0.2,0.4-0.5,0.5c-6.3,1.1-12.6,0.9-18.9,0.9l-18.9,0.1c-12.6,0-25.1,0-37.7-0.2c-0.8,0-1.5-0.7-1.5-1.5
				C86.4,214.9,87,214.2,87.8,214.2z"/>
		</g>
		<g>
			<path class="st11" d="M100.9,48.3c8.5-0.8,17-0.7,25.5-0.8l25.5-0.1l25.5,0l25.5,0.1c0.8,0,1.5,0.7,1.5,1.5
				c0,0.8-0.7,1.5-1.5,1.5l-25.5,0.1l-25.5,0l-25.5-0.1c-8.5-0.1-17,0-25.5-0.8c-0.4,0-0.6-0.4-0.6-0.7
				C100.4,48.6,100.6,48.3,100.9,48.3z"/>
		</g>
	</g>
	<g>
		<line class="st2" x1="273.4" y1="242.3" x2="279" y2="242.3"/>
		<path class="st11" d="M273.4,241.6c0.9-0.4,1.9-0.4,2.8-0.4c0.9,0,1.9,0.1,2.8,0.3c0.5,0.1,0.7,0.5,0.6,1
			c-0.1,0.3-0.3,0.6-0.6,0.6c-0.9,0.2-1.9,0.3-2.8,0.3c-0.9,0-1.9,0-2.8-0.4c-0.4-0.2-0.6-0.6-0.4-1
			C273.1,241.8,273.2,241.7,273.4,241.6z"/>
	</g>
	<g>
		<line class="st2" x1="17.3" y1="242.3" x2="269.3" y2="242.3"/>
		<path class="st11" d="M17.3,241.6c10.5-0.3,21-0.4,31.5-0.3l31.5,0l63-0.1l63-0.1l31.5,0c10.5,0,21,0,31.5,0.3
			c0.5,0,0.9,0.4,0.9,0.9c0,0.5-0.4,0.8-0.9,0.9c-10.5,0.3-21,0.3-31.5,0.3l-31.5,0l-63-0.1l-63-0.1l-31.5,0c-10.5,0-21,0-31.5-0.3
			c-0.4,0-0.7-0.3-0.7-0.7C16.6,241.9,16.9,241.7,17.3,241.6z"/>
	</g>
	<g>
		<line class="st2" x1="11.1" y1="242.3" x2="11.9" y2="242.3"/>
		<path class="st11" d="M11.1,241.3c0.1,0,0.3,0,0.4,0c0.1,0,0.1,0,0.2,0c0.1,0,0.1,0,0.2,0.1c0.5,0.3,0.6,1,0.3,1.4
			c-0.1,0.1-0.2,0.2-0.3,0.3c-0.1,0-0.1,0.1-0.2,0.1c-0.1,0-0.1,0.1-0.2,0c-0.1,0-0.3,0-0.4,0c-0.6-0.1-0.9-0.7-0.8-1.2
			C10.4,241.7,10.7,241.4,11.1,241.3z"/>
	</g>
	<g>
		<line class="st2" x1="1" y1="242.3" x2="5.1" y2="242.3"/>
		<path class="st11" d="M1,241.6c0.7-0.2,1.4-0.2,2-0.3c0.7,0,1.4,0,2,0.2c0.4,0.1,0.7,0.6,0.6,1.1c-0.1,0.3-0.3,0.5-0.6,0.6
			c-0.7,0.2-1.4,0.2-2,0.2c-0.7,0-1.4-0.1-2-0.3c-0.4-0.1-0.6-0.5-0.5-0.9C0.5,241.9,0.7,241.7,1,241.6z"/>
	</g>
	<g>
		<line class="st2" x1="114.3" y1="255.7" x2="192.9" y2="255.7"/>
		<path class="st11" d="M114.3,255c3.3-0.3,6.6-0.3,9.8-0.4l9.8-0.1l19.7-0.1l19.7,0l9.8,0c3.3,0,6.6,0,9.8,0.3c0.5,0,0.8,0.5,0.8,1
			c0,0.4-0.4,0.8-0.8,0.8c-3.3,0.3-6.6,0.3-9.8,0.3l-9.8,0l-19.7,0l-19.7-0.1l-9.8-0.1c-3.3,0-6.6,0-9.8-0.4c-0.4,0-0.6-0.4-0.6-0.7
			C113.7,255.3,113.9,255.1,114.3,255z"/>
	</g>
	<g>
		<line class="st2" x1="81.9" y1="255.7" x2="102" y2="255.7"/>
		<path class="st11" d="M81.9,255c3.4-0.2,6.7-0.2,10.1-0.3c3.4,0,6.7,0,10.1,0.2c0.4,0,0.8,0.4,0.8,0.9c0,0.4-0.4,0.7-0.8,0.8
			c-3.4,0.2-6.7,0.2-10.1,0.2c-3.4,0-6.7-0.1-10.1-0.3c-0.4,0-0.7-0.4-0.7-0.8C81.2,255.3,81.5,255,81.9,255z"/>
	</g>
	<g class="st0">
		<path class="st3" d="M7.1,57.5c0,0.5,0.1,1.1,0.1,1.7c0.1,0.6,0.1,1.1,0.1,1.6c0,0.7-0.2,1.4-1.6,1.5v1.3c1.4,0,1.6,0.9,1.6,1.5
			c0,0.5-0.1,1.1-0.1,1.6c-0.1,0.6-0.1,1.1-0.1,1.6c0,2.1,1.3,2.8,3.1,2.8h0.6v-1.5h-0.4c-1,0-1.4-0.6-1.4-1.6
			c0-0.4,0.1-0.8,0.1-1.3c0-0.5,0.1-0.9,0.1-1.5c0-1.4-0.6-2.1-1.6-2.3v0c1.1-0.2,1.7-0.9,1.6-2.3c0-0.5-0.1-1-0.1-1.5
			c-0.1-0.5-0.1-0.9-0.1-1.3c0-1,0.4-1.6,1.4-1.6h0.4v-1.5h-0.6C8.3,54.7,7.1,55.5,7.1,57.5z"/>
		<path class="st3" d="M27.8,63.6v-1.3c-1.4,0-1.6-0.8-1.6-1.5c0-0.5,0.1-1.1,0.1-1.6c0.1-0.6,0.1-1.1,0.1-1.7
			c0-1.9-1.2-2.8-3.1-2.8h-0.6v1.5h0.4c1.1,0,1.4,0.6,1.4,1.6c0,0.4-0.1,0.8-0.1,1.3c0,0.5-0.1,0.9-0.1,1.5c0,1.4,0.6,2.1,1.6,2.3v0
			c-1.1,0.2-1.7,0.9-1.6,2.3c0,0.6,0.1,1.1,0.1,1.5c0.1,0.5,0.1,0.9,0.1,1.3c0,1-0.4,1.6-1.4,1.6h-0.4v1.5h0.6
			c1.8,0,3.1-0.7,3.1-2.8c0-0.5-0.1-1.1-0.1-1.6c-0.1-0.6-0.1-1.1-0.1-1.6C26.2,64.5,26.3,63.6,27.8,63.6z"/>
		<path class="st3" d="M16.7,65.7c-0.6,0-1.1,0.5-1.1,1.1c0,0.7,0.4,1.1,1.1,1.1c0.7,0,1.1-0.5,1.1-1.1
			C17.8,66.1,17.4,65.7,16.7,65.7z"/>
		<polygon class="st3" points="17.4,64.8 17.7,57.9 15.8,57.9 16.1,64.8 		"/>
	</g>
	<g class="st0">
		<path class="st3" d="M162.7,7c0,0.5,0.1,1.1,0.1,1.7c0.1,0.6,0.1,1.1,0.1,1.6c0,0.7-0.2,1.4-1.6,1.5v1.3c1.4,0,1.6,0.9,1.6,1.5
			c0,0.5-0.1,1.1-0.1,1.6c-0.1,0.6-0.1,1.1-0.1,1.6c0,2.1,1.3,2.8,3.1,2.8h0.6v-1.5H166c-1,0-1.4-0.6-1.4-1.6c0-0.4,0.1-0.8,0.1-1.3
			c0-0.5,0.1-0.9,0.1-1.5c0-1.4-0.6-2.1-1.6-2.3v0c1.1-0.2,1.7-0.9,1.6-2.3c0-0.5-0.1-1-0.1-1.5c-0.1-0.5-0.1-0.9-0.1-1.3
			c0-1,0.4-1.6,1.4-1.6h0.4V4.3h-0.6C164,4.3,162.7,5.1,162.7,7z"/>
		<path class="st3" d="M183.4,13.2v-1.3c-1.4,0-1.6-0.8-1.6-1.5c0-0.5,0.1-1.1,0.1-1.6c0.1-0.6,0.1-1.1,0.1-1.7
			c0-1.9-1.2-2.8-3.1-2.8h-0.6v1.5h0.4c1.1,0,1.4,0.6,1.4,1.6c0,0.4-0.1,0.8-0.1,1.3c0,0.5-0.1,0.9-0.1,1.5c0,1.4,0.6,2.1,1.6,2.3v0
			c-1.1,0.2-1.7,0.9-1.6,2.3c0,0.6,0.1,1.1,0.1,1.5c0.1,0.5,0.1,0.9,0.1,1.3c0,1-0.4,1.6-1.4,1.6h-0.4v1.5h0.6
			c1.8,0,3.1-0.7,3.1-2.8c0-0.5-0.1-1.1-0.1-1.6c-0.1-0.6-0.1-1.1-0.1-1.6C181.8,14,182,13.2,183.4,13.2z"/>
		<path class="st3" d="M172.4,15.2c-0.6,0-1.1,0.5-1.1,1.1c0,0.7,0.4,1.1,1.1,1.1c0.7,0,1.1-0.5,1.1-1.1
			C173.5,15.7,173.1,15.2,172.4,15.2z"/>
		<polygon class="st3" points="173.1,14.3 173.3,7.5 171.4,7.5 171.7,14.3 		"/>
	</g>
	<g class="st0">
		<path class="st3" d="M279.2,114.5c1.4,0,1.6-0.8,1.6-1.5c0-0.5-0.1-1.1-0.1-1.6c-0.1-0.6-0.1-1.1-0.1-1.7c0-1.9,1.2-2.8,3.1-2.8
			h0.6v1.5h-0.4c-1.1,0-1.4,0.6-1.4,1.6c0,0.4,0.1,0.8,0.1,1.3c0,0.5,0.1,0.9,0.1,1.5c0,1.4-0.6,2.1-1.6,2.3v0
			c1.1,0.2,1.7,0.9,1.6,2.3c0,0.6-0.1,1.1-0.1,1.5c-0.1,0.5-0.1,0.9-0.1,1.3c0,1,0.4,1.6,1.4,1.6h0.4v1.5h-0.6
			c-1.8,0-3.1-0.7-3.1-2.8c0-0.5,0.1-1.1,0.1-1.6c0.1-0.6,0.1-1.1,0.1-1.6c0-0.6-0.2-1.4-1.6-1.5V114.5z"/>
	</g>
	<g>
		<rect x="238.8" y="87.7" class="st12" width="16.6" height="143.9"/>
		<rect x="232" y="81.1" class="st13" width="30.4" height="9.6"/>
		<rect x="226.6" y="231.4" class="st13" width="40.6" height="10.8"/>
		<polygon class="st12" points="306.3,64.3 150.6,64.3 140.4,80.7 306.3,80.7 		"/>
		<line class="st12" x1="169.6" y1="64.3" x2="159.4" y2="80.7"/>
		<g>
			<path class="st11" d="M185.9,69.4c-0.2,1.2-0.7,2.3-1.3,3.3c-0.6,1-1.1,2-1.7,3c-1.2,2-2.4,3.9-3.8,5.8c-0.4,0.5-1.1,0.6-1.7,0.3
				c-0.5-0.3-0.6-1-0.3-1.5c1.1-2,2.3-4,3.5-5.9c0.6-1,1.3-1.9,1.9-2.9c0.6-1,1.3-1.9,2.4-2.6c0.3-0.2,0.7-0.1,0.9,0.2
				C185.8,69,185.9,69.2,185.9,69.4z"/>
		</g>
		<line class="st12" x1="203.6" y1="70" x2="197" y2="80.7"/>
		<g>
			<path class="st11" d="M226.9,64.9c-1,1.9-2.1,3.7-3.2,5.5c-0.6,0.9-1.1,1.8-1.7,2.7c-0.6,0.9-1.2,1.8-2.3,2.4
				c-0.4,0.2-0.8,0-1-0.3c-0.1-0.1-0.1-0.2-0.1-0.4c0-1.2,0.6-2.1,1.1-3.1c0.5-0.9,1.1-1.8,1.6-2.7c1.1-1.8,2.3-3.6,3.5-5.3
				c0.4-0.5,1.1-0.6,1.7-0.2C227.1,63.8,227.2,64.4,226.9,64.9z"/>
		</g>
		<g>
			<line class="st2" x1="268.8" y1="64.3" x2="261.9" y2="75.5"/>
			<path class="st11" d="M269.8,64.9c-0.5,1-1.1,1.9-1.7,2.9c-0.6,0.9-1.2,1.9-1.8,2.8c-0.6,0.9-1.2,1.8-1.9,2.7
				c-0.6,0.9-1.4,1.8-2.3,2.4c-0.2,0.1-0.4,0.1-0.5-0.1c-0.1-0.1-0.1-0.2-0.1-0.3c0.2-1.2,0.6-2.2,1.1-3.2c0.5-1,1.1-1.9,1.6-2.9
				c0.5-1,1.1-1.9,1.7-2.8c0.6-0.9,1.2-1.9,1.8-2.8c0.4-0.5,1.1-0.7,1.6-0.3C270,63.8,270.1,64.4,269.8,64.9z"/>
		</g>
		<g>
			<line class="st2" x1="285" y1="68.7" x2="277.5" y2="80.7"/>
			<path class="st11" d="M285.4,69c-0.1,1.3-0.6,2.4-1.2,3.4c-0.6,1-1.2,2-1.8,3.1c-1.2,2-2.5,4-3.9,5.9c-0.4,0.5-1.1,0.6-1.7,0.2
				c-0.5-0.4-0.6-1-0.3-1.5c1.1-2.1,2.3-4.1,3.6-6.1c0.6-1,1.3-2,2-2.9c0.6-1,1.3-1.9,2.5-2.6c0.3-0.1,0.6,0,0.7,0.2
				C285.4,68.8,285.4,68.9,285.4,69z"/>
		</g>
		<g>
			<line class="st2" x1="302.9" y1="70.5" x2="296.5" y2="80.7"/>
			<path class="st11" d="M303.4,70.8c-0.1,1.1-0.6,2-1.1,2.9c-0.5,0.9-1,1.8-1.5,2.6c-1,1.7-2.1,3.4-3.3,5.1
				c-0.4,0.5-1.1,0.7-1.6,0.3c-0.5-0.3-0.6-1-0.4-1.5c1-1.8,2-3.5,3.1-5.2c0.5-0.8,1.1-1.7,1.7-2.5c0.6-0.8,1.2-1.6,2.1-2.2
				c0.3-0.2,0.6-0.1,0.8,0.2C303.4,70.5,303.4,70.6,303.4,70.8z"/>
		</g>
		<g>
			<path class="st11" d="M159.2,81.3c-1.2-1.8-2.4-3.7-3.5-5.6c-0.6-1-1.1-1.9-1.7-2.9c-0.5-1-1.1-1.9-1.3-3.1
				c-0.1-0.3,0.1-0.6,0.4-0.7c0.2,0,0.4,0,0.5,0.1c0.9,0.7,1.6,1.6,2.2,2.5c0.6,0.9,1.2,1.8,1.9,2.8c1.2,1.9,2.4,3.7,3.5,5.6
				c0.3,0.6,0.1,1.3-0.4,1.6C160.2,82,159.6,81.9,159.2,81.3z"/>
		</g>
		<g>
			<path class="st11" d="M177.9,81.3c-1.2-1.9-2.4-3.8-3.5-5.8l-1.7-2.9c-0.6-1-1.1-2-1.4-3.1c-0.1-0.3,0.1-0.7,0.4-0.8
				c0.2-0.1,0.5,0,0.6,0.1c0.9,0.8,1.5,1.7,2.1,2.6l1.9,2.8c1.2,1.9,2.5,3.8,3.6,5.7c0.3,0.6,0.2,1.3-0.4,1.6
				C179,82,178.2,81.9,177.9,81.3z"/>
		</g>
		<line class="st12" x1="197.8" y1="80.7" x2="187.6" y2="64.3"/>
		<g>
			<path class="st11" d="M215.6,81.3c-1.3-1.9-2.6-3.9-3.8-5.9c-0.6-1-1.2-2-1.8-3c-0.6-1-1.2-2-1.3-3.3c0-0.4,0.3-0.7,0.6-0.7
				c0.1,0,0.3,0,0.4,0.1c1.2,0.7,1.7,1.7,2.4,2.6c0.7,1,1.3,1.9,1.9,2.9c1.3,2,2.5,4,3.6,6c0.3,0.6,0.1,1.3-0.5,1.6
				C216.6,82,215.9,81.8,215.6,81.3z"/>
		</g>
		<line class="st13" x1="235.3" y1="80.7" x2="225.1" y2="64.3"/>
		<line class="st13" x1="278.4" y1="80.7" x2="268.2" y2="64.3"/>
		<g>
			<path class="st11" d="M254.8,101.5c-1-0.5-2-1.1-3-1.7c-1-0.6-2-1.2-2.9-1.8c-1-0.6-1.9-1.3-2.9-1.9c-1-0.6-1.9-1.4-2.6-2.4
				c-0.1-0.1,0-0.2,0-0.3c0,0,0.1,0,0.2,0c1.2,0.1,2.3,0.6,3.4,1.1c1,0.5,2.1,1,3.1,1.6c1,0.5,2,1.1,3,1.6c1,0.6,2,1.2,3,1.8
				c0.5,0.4,0.7,1.1,0.3,1.6C256,101.6,255.3,101.8,254.8,101.5z"/>
		</g>
		<line class="st12" x1="238.9" y1="110.1" x2="255.3" y2="100.6"/>
		<g>
			<path class="st11" d="M254.8,120.3c-2.1-1.1-4.2-2.3-6.3-3.6c-1-0.6-2-1.3-3.1-1.9c-1-0.7-2-1.4-2.9-2.3c-0.2-0.3-0.2-0.7,0-0.9
				c0.2-0.2,0.4-0.2,0.6-0.2c1.2,0.3,2.3,0.8,3.4,1.4c1.1,0.6,2.1,1.1,3.2,1.7c2.1,1.2,4.2,2.4,6.2,3.7c0.5,0.4,0.7,1.1,0.4,1.6
				C256,120.4,255.3,120.6,254.8,120.3z"/>
		</g>
		<line class="st12" x1="238.9" y1="128.9" x2="255.3" y2="119.4"/>
		<line class="st12" x1="255.3" y1="138" x2="238.9" y2="128.4"/>
		<g>
			<path class="st11" d="M238.3,146.6c1.6-1.1,3.4-2.2,5.1-3.1c0.9-0.5,1.7-1,2.6-1.4c0.9-0.5,1.8-0.9,2.9-0.9
				c0.3,0,0.6,0.3,0.6,0.7c0,0.1,0,0.2-0.1,0.2c-0.5,1.1-1.4,1.6-2.2,2.1c-0.8,0.5-1.7,1.1-2.5,1.6c-1.7,1-3.4,2-5.2,2.8
				c-0.6,0.3-1.3,0-1.6-0.6C237.6,147.5,237.8,146.9,238.3,146.6z"/>
		</g>
		<line class="st12" x1="255.3" y1="156.9" x2="238.9" y2="147.4"/>
		<line class="st12" x1="238.9" y1="166.5" x2="255.3" y2="157"/>
		<line class="st12" x1="255.3" y1="175.6" x2="238.9" y2="166.1"/>
		<g>
			<path class="st11" d="M238.3,184.2c1.7-1.1,3.4-2.2,5.2-3.1c0.9-0.5,1.8-1,2.7-1.4c0.9-0.5,1.8-1,3-0.9c0.3,0,0.6,0.3,0.6,0.6
				c0,0.1,0,0.2-0.1,0.2c-0.5,1.1-1.4,1.6-2.3,2.1c-0.8,0.5-1.7,1.1-2.6,1.6c-1.7,1-3.5,2-5.3,2.9c-0.6,0.3-1.3,0-1.6-0.6
				C237.6,185.1,237.8,184.5,238.3,184.2z"/>
		</g>
		<g>
			<path class="st11" d="M249.8,191.7c-1.1-0.2-2.1-0.6-3.1-1c-1-0.5-1.9-1-2.8-1.5c-1.9-1-3.7-2.1-5.5-3.3
				c-0.5-0.4-0.7-1.1-0.3-1.6c0.3-0.5,1-0.7,1.5-0.4c1.9,0.9,3.8,2,5.6,3.2c0.9,0.6,1.8,1.1,2.7,1.7c0.9,0.6,1.7,1.3,2.4,2.2
				c0.2,0.2,0.1,0.5-0.1,0.6C250,191.7,249.9,191.7,249.8,191.7z"/>
		</g>
		<line class="st12" x1="238.9" y1="204.1" x2="255.3" y2="194.6"/>
		<line class="st12" x1="255.3" y1="213.3" x2="238.9" y2="203.7"/>
		<line class="st12" x1="253.9" y1="231.2" x2="238.9" y2="222.5"/>
		<line class="st13" x1="297.4" y1="80.7" x2="287.5" y2="64.8"/>
		<polyline class="st13" points="257.1,55.2 251.8,29.4 242.8,29.4 237.2,55.1 		"/>
		<g>
			<path class="st11" d="M238.9,212l8.2,0.1l4.1,0l2,0l1,0l0.5,0l0.2,0l0.1,0c0,0,0,0,0,0c0,0-0.1,0-0.1,0l0,0l-0.1,0.1
				c-0.3,0.2-0.6,0.7-0.5,1v0l1.8,1c-1.9,1.3-3.8,2.5-5.8,3.6c-1,0.6-2,1.1-3,1.7c-1,0.5-1.9,1.2-3.3,1.2c-0.4,0-0.7-0.3-0.7-0.7
				c0-0.1,0-0.2,0.1-0.3c0.6-1.2,1.7-1.7,2.6-2.3c1-0.6,1.9-1.2,2.9-1.8c1.9-1.2,3.9-2.3,5.9-3.4l0.1,0c0.6-0.3,1.3-0.1,1.6,0.5
				c0.1,0.2,0.1,0.4,0.1,0.6l0,0c0,0.3-0.2,0.8-0.6,1l-0.1,0.1l0,0l-0.1,0c-0.1,0-0.2,0.1-0.2,0.1l-0.2,0l-0.2,0l-0.3,0l-0.5,0
				l-1.1,0l-2.1,0l-4.1,0l-8.3-0.1c-0.7,0-1.2-0.5-1.2-1.2C237.7,212.5,238.2,212,238.9,212L238.9,212z"/>
		</g>
		<g>
			<path class="st11" d="M238.9,193.2c1.3-0.1,2.5-0.1,3.8-0.1c1.3,0,2.5,0,3.8,0c1.3,0,2.5,0.1,3.8,0.2c1.3,0,2.6,0.2,3.8,0.8
				c0.2,0.1,0.3,0.4,0.2,0.7c0,0.1-0.1,0.2-0.2,0.2c-1.3,0.7-2.6,0.8-3.8,0.8c-1.3,0-2.6,0.1-3.8,0.1c-1.3,0-2.6,0-3.8,0
				c-1.3,0-2.6-0.1-3.8-0.2c-0.7-0.1-1.1-0.6-1.1-1.3C237.8,193.7,238.3,193.3,238.9,193.2L238.9,193.2z"/>
		</g>
		<path class="st12" d="M238.9,175.7c0,0,16.5,0.3,16.5,0"/>
		<path class="st12" d="M238.9,156.9c0,0,16.5,0.3,16.5,0"/>
		<path class="st12" d="M238.9,137.9c0,0,7.7,0.1,12.6,0.1c1.3,0,2.7,0,4,0"/>
		<path class="st12" d="M238.9,119.2c0,0,16.5,0.3,16.5,0"/>
		<path class="st12" d="M238.9,100.4c0,0,16.5,0.3,16.5,0"/>
		<polyline class="st12" points="170.1,64.4 242.8,29.4 254.2,42.5 240.3,42.5 256.8,54.9 		"/>
		<line class="st13" x1="251.8" y1="29.4" x2="306.3" y2="64.3"/>
		<rect x="138.1" y="80.7" class="st13" width="30.3" height="9.6"/>
		<circle class="st13" cx="153.5" cy="116.4" r="6.4"/>
		<g>
			<path class="st2" d="M153.3,118.6c-1.1-0.1-2-1-2-2.2c0-1.2,1-2.2,2.2-2.2c1.2,0,2.2,1,2.2,2.2"/>
			<path class="st11" d="M153.3,119c-1.1,0.3-2.3-0.4-2.8-1.6c-0.5-1.1-0.2-2.7,0.8-3.4c1-0.8,2.4-0.9,3.4-0.4
				c1.1,0.5,1.6,1.7,1.5,2.8c0,0.3-0.3,0.5-0.6,0.4c-0.2,0-0.4-0.2-0.4-0.4l0,0c-0.1-0.7-0.6-1.1-1.1-1.2c-0.5-0.1-1,0.1-1.3,0.4
				c-0.3,0.3-0.4,0.7-0.3,1.2c0,0.4,0.3,1,0.9,1.3l0.1,0c0.2,0.1,0.3,0.4,0.2,0.7C153.5,118.9,153.4,119,153.3,119z"/>
		</g>
		<g>
			<line class="st2" x1="158.1" y1="112" x2="158.1" y2="96.9"/>
			<path class="st11" d="M156.9,112c0-1.3,0-2.5,0-3.8c0-1.3,0-2.5,0.1-3.8c0.1-2.5,0.1-5,0.5-7.6c0.1-0.4,0.4-0.6,0.8-0.5
				c0.3,0,0.5,0.3,0.5,0.5c0.4,2.5,0.4,5,0.5,7.6c0,1.3,0,2.5,0.1,3.8c0,1.3,0,2.5,0,3.8c0,0.7-0.5,1.2-1.2,1.2
				C157.5,113.2,156.9,112.6,156.9,112z"/>
		</g>
		<line class="st13" x1="148.4" y1="90.3" x2="148.4" y2="112.6"/>
		<path class="st12" d="M158.8,132.8c-0.5,2.5-2.6,4.4-5.2,4.4c-2.9,0-5.3-2.4-5.3-5.3c0-2.9,2.3-5.2,5.2-5.3v-3.7"/>
		<polyline class="st12" points="139.4,145.5 153,134.9 166,145.5 		"/>
		<path class="st10" d="M169.2,189.4h-31.4c-3.5,0-6.3-2.8-6.3-6.3v-32.3c0-3.5,2.8-6.3,6.3-6.3h31.4c3.5,0,6.3,2.8,6.3,6.3v32.3
			C175.5,186.6,172.7,189.4,169.2,189.4z"/>
		<path class="st14" d="M169.2,189.4h-31.4c-3.5,0-6.3-2.8-6.3-6.3v-29c0-3.5,2.8-6.3,6.3-6.3h31.4c3.5,0,6.3,2.8,6.3,6.3v29
			C175.5,186.6,172.7,189.4,169.2,189.4z"/>
		<path class="st15" d="M175.5,154.2v27.3c0,3.9-3.2,7.1-7.1,7.1h-29.7c-3.9,0-7.1-3.2-7.1-7.1v-2.4c0.9,2.8,3.6,4.9,6.7,4.9H168
			c3.9,0,7.1-3.2,7.1-7.1V152C175.3,152.7,175.5,153.4,175.5,154.2z"/>
		<g>
			<path class="st11" d="M129.3,160.8c-0.1-0.2-0.1-0.3-0.1-0.5c0-0.2,0-0.3,0-0.5c0-0.2,0.1-0.3,0.1-0.5c0.1-0.2,0.2-0.3,0.3-0.5
				c0.3-0.3,0.8-0.3,1.1,0c0,0,0,0,0,0c0.1,0.2,0.2,0.3,0.3,0.5c0.1,0.2,0.1,0.3,0.1,0.5c0,0.2,0.1,0.3,0,0.5c0,0.2,0,0.3-0.1,0.5
				c-0.2,0.5-0.8,0.8-1.3,0.6C129.6,161.3,129.4,161.1,129.3,160.8z"/>
		</g>
		<g>
			<path class="st11" d="M129.5,154.9c-0.3-0.8-0.4-1.6-0.4-2.4c0-0.2,0-0.4,0-0.6l0-0.7c0.1-0.5,0.1-0.9,0.2-1.4
				c0.5-1.8,1.6-3.4,3.1-4.5c0.8-0.6,1.6-1,2.5-1.3c0.9-0.3,1.9-0.4,2.7-0.4l4.8,0l19.2,0l4.8,0l1.2,0c0.4,0,0.8,0,1.3,0
				c0.9,0.1,1.9,0.3,2.7,0.6c1.7,0.7,3.2,2.1,4.1,3.7c0.5,0.8,0.8,1.7,0.9,2.7c0.1,0.5,0.1,0.9,0.1,1.4l0,1.2l0,19.2l0,9.6
				c0,0.4,0,0.9-0.1,1.3c-0.1,0.5-0.1,0.9-0.3,1.4c-0.3,0.9-0.7,1.8-1.2,2.5c-1.1,1.6-2.7,2.7-4.5,3.2c-0.5,0.1-0.9,0.2-1.4,0.3
				c-0.5,0-1,0.1-1.3,0l-2.4,0l-4.8,0l-9.6,0l-9.6,0l-2.4,0l-1.2,0l-0.6,0l-0.7,0c-1.9-0.1-3.7-0.9-5.1-2.2c-1.4-1.3-2.3-3-2.6-4.9
				c-0.1-0.4-0.1-1-0.1-1.4l0-1.2l0-2.4c0-3.2-0.1-6.4,0.6-9.6c0.1-0.4,0.4-0.6,0.8-0.5c0.3,0.1,0.5,0.3,0.5,0.5
				c0.7,3.2,0.5,6.4,0.6,9.6l0,2.4l0,1.2c0,0.4,0,0.7,0.1,1c0.2,1.3,0.8,2.5,1.8,3.4c1,0.9,2.2,1.4,3.5,1.5l0.5,0l0.6,0l1.2,0l2.4,0
				l9.6,0l9.6,0l4.8,0l2.4,0c0.4,0,0.7,0,1.1,0c0.3,0,0.6-0.1,1-0.2c1.2-0.4,2.4-1.1,3.1-2.2c0.4-0.5,0.7-1.1,0.8-1.7
				c0.1-0.3,0.1-0.6,0.2-1c0-0.3,0-0.6,0-1.1l0-9.6l0-19.2l0-1.2c0-0.3,0-0.7-0.1-1c-0.1-0.6-0.3-1.3-0.6-1.8
				c-0.6-1.1-1.7-2.1-2.9-2.6c-0.6-0.3-1.2-0.4-1.9-0.4c-0.3,0-0.7,0-1.1,0l-1.2,0l-4.8,0l-19.2,0l-4.8,0c-0.8,0-1.4,0-2,0.2
				c-0.6,0.2-1.2,0.5-1.8,0.9c-1.1,0.8-1.9,1.9-2.2,3.2c-0.1,0.3-0.1,0.6-0.2,1l0,0.5l0,0.6c0,0.8-0.1,1.6-0.4,2.4
				c-0.1,0.4-0.6,0.6-1,0.5C129.8,155.3,129.6,155.1,129.5,154.9z"/>
		</g>
		<rect x="305.9" y="58.1" class="st13" width="10" height="28.5"/>
		<g>
			<polyline class="st2" points="325.7,78.7 325.7,86.6 315.8,86.6 315.8,58.1 325.7,58.1 325.7,71.1 			"/>
			<path class="st11" d="M326.3,78.7c0.5,1.3,0.6,2.7,0.7,4c0.1,1.3,0.1,2.7,0,4l0,0.1c-0.1,0.6-0.6,1.1-1.2,1.1h-10
				c-0.7,0-1.2-0.5-1.2-1.2V58.1c0-0.7,0.5-1.2,1.2-1.2h10c0.6,0,1.1,0.5,1.2,1.1l0,0.1c0.1,2.2,0.1,4.3,0.1,6.5
				c-0.1,2.2,0,4.3-0.5,6.5c-0.1,0.4-0.5,0.7-0.9,0.6c-0.3-0.1-0.5-0.3-0.6-0.6c-0.5-2.2-0.5-4.3-0.5-6.5c0-2.2,0-4.3,0.1-6.5
				l1.2,1.2h-10l1.2-1.2v28.5l-1.2-1.2h10l-1.2,1.2c-0.1-1.3-0.1-2.7,0-4c0.1-1.3,0.2-2.7,0.7-4c0.1-0.3,0.4-0.5,0.7-0.3
				C326.1,78.4,326.2,78.5,326.3,78.7z"/>
		</g>
		<path class="st16" d="M235.6,80.9l-7.5-11.8l8.1-13.8h22.3v25.4C258.6,80.7,235.8,80.9,235.6,80.9z"/>
		<path class="st17" d="M254.7,59.4h-15.4l-5.5,9.3h20.9C254.7,68.8,254.8,59.3,254.7,59.4z"/>
		<g>
			<path class="st12" d="M141.9,163.2c0-1.7,1.4-3.1,3.1-3.1s3.1,1.4,3.1,3.1"/>
			<path class="st12" d="M156.9,163.2c0-1.7,1.4-3.1,3.1-3.1s3.1,1.4,3.1,3.1"/>
			<path class="st16" d="M156.7,171.1c-0.2,2.2-1.9,3.8-4.1,3.8c-2.2,0-4-1.7-4.1-3.8H156.7z"/>
			<circle class="st15" cx="165.2" cy="169.8" r="3.1"/>
			<circle class="st15" cx="139.8" cy="169.8" r="3.1"/>
		</g>
	</g>
	<path class="st17" d="M65.6,241H41.5c-0.9,0-1.7-0.8-1.7-1.7v-4c0-0.9,0.8-1.7,1.7-1.7h24.1c0.9,0,1.7,0.8,1.7,1.7v4
		C67.3,240.2,66.6,241,65.6,241z"/>
	<path class="st17" d="M68.3,233.6H44.2c-0.9,0-1.7-0.8-1.7-1.7v-4c0-0.9,0.8-1.7,1.7-1.7h24.1c0.9,0,1.7,0.8,1.7,1.7v4
		C70,232.8,69.2,233.6,68.3,233.6z"/>
	<path class="st2" d="M67.2,224.6H43.1c-0.9,0-1.7-0.8-1.7-1.7v-1.7c0-0.9,0.8-1.7,1.7-1.7h24.1c0.9,0,1.7,0.8,1.7,1.7v1.7
		C68.9,223.8,68.2,224.6,67.2,224.6z"/>
	<path class="st14" d="M67.5,226.2H43.4c-0.9,0-1.7-0.8-1.7-1.7v-1.7c0-0.9,0.8-1.7,1.7-1.7h24.1c0.9,0,1.7,0.8,1.7,1.7v1.7
		C69.2,225.4,68.4,226.2,67.5,226.2z"/>
	<rect x="43.6" y="227.2" class="st15" width="25.3" height="1.7"/>
	<rect x="40.9" y="234.6" class="st15" width="25.3" height="1.7"/>
	<g>
		<path class="st11" d="M41.3,218.4c0.4-0.4,0.9-0.7,1.4-0.8c0.2-0.1,0.6-0.1,0.7-0.1l0.5,0l2,0l3.9,0l7.8,0l7.8,0l2,0
			c1.1,0,2.2,0.8,2.6,1.8c0.1,0.3,0.2,0.5,0.2,0.8c0,0.3,0,0.4,0,0.6l0,1l0,2l0,0.5l0,0.2c0,0.1,0,0.3,0,0.4
			c-0.1,0.6-0.3,1.1-0.7,1.5c-0.4,0.4-0.9,0.7-1.4,0.9c-0.3,0.1-0.6,0.1-0.8,0.1l-0.5,0l-3.9,0l-7.8,0l-7.8,0l-3.9,0
			c-0.5,0-1.1-0.1-1.5-0.4c-0.5-0.3-0.8-0.7-1-1.2c-0.1-0.2-0.2-0.5-0.2-0.8c0-0.1,0-0.3,0-0.4l0-0.3c0-0.3,0.1-0.7,0.1-1
			c0.1-0.5,0.5-0.8,1-0.7c0.3,0.1,0.6,0.3,0.7,0.7c0.1,0.3,0.1,0.7,0.1,1l0,0.2c0,0,0,0.1,0,0.1c0,0.1,0.1,0.1,0.1,0.2
			c0.2,0.2,0.3,0.3,0.6,0.3l3.9,0l7.8,0l7.8,0l3.9,0l0.5,0c0.1,0,0.1,0,0.2,0c0.1,0,0.2-0.1,0.2-0.2c0.1-0.1,0.1-0.2,0.1-0.3
			c0,0,0,0,0-0.1l0-0.2l0-0.5l0-2c0-0.6,0-1.5,0-1.5c-0.1-0.2-0.2-0.3-0.4-0.3l-1.9,0l-7.8,0l-7.8,0l-3.9,0l-2,0c-0.3,0-0.7,0-0.7,0
			c-0.1,0-0.2,0.1-0.3,0.1l-0.1,0.1c-0.5,0.4-1.2,0.3-1.6-0.2C40.9,219.5,41,218.8,41.3,218.4z"/>
	</g>
	<path class="st2" d="M97.4,217.2H73.3c-0.9,0-1.7-0.8-1.7-1.7v-1.7c0-0.9,0.8-1.7,1.7-1.7h24.1c0.9,0,1.7,0.8,1.7,1.7v1.7
		C99.1,216.4,98.3,217.2,97.4,217.2z"/>
	<path class="st14" d="M97.6,218.8H73.5c-0.9,0-1.7-0.8-1.7-1.7v-1.7c0-0.9,0.8-1.7,1.7-1.7h24.1c0.9,0,1.7,0.8,1.7,1.7v1.7
		C99.3,218,98.5,218.8,97.6,218.8z"/>
	<g>
		<path class="st11" d="M71.5,211c0.4-0.4,0.9-0.7,1.4-0.8c0.2-0.1,0.6-0.1,0.7-0.1l0.5,0l2,0l3.9,0l7.8,0l7.8,0l2,0
			c1.1,0,2.2,0.8,2.6,1.8c0.1,0.3,0.2,0.5,0.2,0.8c0,0.3,0,0.4,0,0.6l0,1l0,2l0,0.5l0,0.2c0,0.1,0,0.3,0,0.4
			c-0.1,0.6-0.3,1.1-0.7,1.5c-0.4,0.4-0.9,0.7-1.4,0.9c-0.3,0.1-0.6,0.1-0.8,0.1l-0.5,0l-3.9,0l-7.8,0l-7.8,0l-3.9,0
			c-0.5,0-1.1-0.1-1.5-0.4c-0.5-0.3-0.8-0.7-1-1.2c-0.1-0.2-0.2-0.5-0.2-0.8c0-0.1,0-0.3,0-0.4l0-0.3c0-0.3,0.1-0.7,0.1-1
			c0.1-0.5,0.5-0.8,1-0.7c0.3,0.1,0.6,0.3,0.7,0.7c0.1,0.3,0.1,0.7,0.1,1l0,0.2c0,0,0,0.1,0,0.1c0,0.1,0.1,0.1,0.1,0.2
			c0.2,0.2,0.3,0.3,0.6,0.3l3.9,0l7.8,0l7.8,0l3.9,0l0.5,0c0.1,0,0.1,0,0.2,0c0.1,0,0.2-0.1,0.2-0.2c0.1-0.1,0.1-0.2,0.1-0.3
			c0,0,0,0,0-0.1l0-0.2l0-0.5l0-2c0-0.6,0-1.5,0-1.5c-0.1-0.2-0.2-0.3-0.4-0.3l-1.9,0l-7.8,0l-7.8,0l-3.9,0l-2,0c-0.3,0-0.7,0-0.7,0
			c-0.1,0-0.2,0.1-0.3,0.1l-0.1,0.1c-0.5,0.4-1.2,0.3-1.6-0.2C71,212.1,71.1,211.5,71.5,211z"/>
	</g>
	<path class="st17" d="M97.2,241H73.1c-0.9,0-1.7-0.8-1.7-1.7v-4c0-0.9,0.8-1.7,1.7-1.7h24.1c0.9,0,1.7,0.8,1.7,1.7v4
		C98.9,240.2,98.1,241,97.2,241z"/>
	<path class="st17" d="M99.7,233.6H75.6c-0.9,0-1.7-0.8-1.7-1.7v-4c0-0.9,0.8-1.7,1.7-1.7h24.1c0.9,0,1.7,0.8,1.7,1.7v4
		C101.4,232.8,100.7,233.6,99.7,233.6z"/>
	<path class="st17" d="M97.2,226.2H73.1c-0.9,0-1.7-0.8-1.7-1.7v-4c0-0.9,0.8-1.7,1.7-1.7h24.1c0.9,0,1.7,0.8,1.7,1.7v4
		C98.9,225.4,98.1,226.2,97.2,226.2z"/>
	<rect x="72.5" y="219.9" class="st15" width="25.3" height="1.7"/>
	<rect x="75" y="227.1" class="st15" width="25.3" height="1.7"/>
	<rect x="72.5" y="234.7" class="st15" width="25.3" height="1.7"/>
</g>
</svg>
