<?xml version="1.0" encoding="utf-8"?>
<!-- Generator: Adobe Illustrator 22.1.0, SVG Export Plug-In . SVG Version: 6.00 Build 0)  -->
<svg version="1.1" id="Layer_1" xmlns="http://www.w3.org/2000/svg" xmlns:xlink="http://www.w3.org/1999/xlink" x="0px" y="0px"
	 viewBox="0 0 325 243" style="enable-background:new 0 0 325 243;" xml:space="preserve">
<style type="text/css">
	.st0{fill:#E5ECF7;}
	.st1{fill:#717790;}
	.st2{fill:#D0DDF1;}
	.st3{fill:#FFFFFF;}
	.st4{fill:#C9D6EC;}
	.st5{fill:#E5ECF7;stroke:#717790;stroke-width:2;stroke-linecap:round;stroke-linejoin:round;stroke-miterlimit:10;}
	.st6{fill:none;}
	.st7{fill:#EAF0F8;}
	.st8{fill:#97B7E0;}
	.st9{fill:#FFFFFF;stroke:#717790;stroke-width:3;stroke-linecap:round;stroke-linejoin:round;stroke-miterlimit:10;}
	.st10{fill:#BBD2ED;}
	.st11{fill:none;stroke:#717790;stroke-width:3;stroke-linecap:round;stroke-linejoin:round;stroke-miterlimit:10;}
	.st12{fill:#E5EBF7;}
	.st13{opacity:0.2;fill:#4072B7;}
	.st14{fill:#BBD2ED;stroke:#717790;stroke-width:3;stroke-linecap:round;stroke-linejoin:round;stroke-miterlimit:10;}
</style>
<title>Group</title>
<desc>Created with Sketch.</desc>
<g id="_x33_2._SEARCH">
	<g>
		<path class="st0" d="M305.7,186.9c-1.6,16.7-11.1,33.3-13.5,35.3c-2.5,2-6.8,0.9-9.9,0.9c-7,0-240.9,0-240.9,0
			c-0.1-0.2-0.1-0.3-0.1-0.3c-6-10.5-12.8-20.6-16.2-32.3c-9.4-32.6,20.7-54.7,40.1-75.6c11.1-12,12-29.2,21.6-41.9
			c13.2-17.5,35.5-26.6,56.9-28c24.5-1.6,45.3,7.2,60.2,27c12.2,16.3,19.2,41.6,38.5,51.4c6.9,3.5,14.9,4,22.4,6
			C289.2,135.9,308.2,161.2,305.7,186.9z"/>
		<g>
			<path class="st1" d="M78.2,55.5c-1.2,0.2-2.4,0.3-3.6,0.4c-1.2,0.1-2.4,0.2-3.6,0.3c-2.4,0.1-4.8,0.2-7.3,0.1l-0.1,0
				c-0.5,0-1-0.4-1.1-0.9l0,0c-0.5-2.3-1-4.6-2.2-6.5c-1.1-1.8-2.9-3.3-4.8-3.7c-1.9-0.4-4.2,0.2-5.3,1.8c-1.1,1.5-1.1,3.8-0.9,6.2
				L47,53c0.1-1.2-0.2-2.4-0.9-3.4c-0.7-1-1.7-1.6-2.8-1.7c-1.1-0.1-2.2,0.2-2.9,1.1c-0.7,0.8-0.9,2.1-0.5,2.9l-2.2,1
				c0,0-0.1-0.1-0.2-0.2c-0.2-0.1-0.4-0.1-0.5,0c-0.3,0.1-0.7,0.5-1,1c-0.2,0.5-0.4,1.2-0.3,1.9c0,0.7,0.2,1.3,0.6,1.9l0,0
				c0.3,0.6,0.1,1.3-0.5,1.7c-0.2,0.1-0.4,0.1-0.6,0.1c-4.4,0.1-8.9,0-13.3-0.2C17.4,59,13,58.8,8.6,58.5c-0.2,0-0.4-0.2-0.4-0.4
				c0-0.2,0.2-0.4,0.4-0.4c4.4-0.3,8.9-0.5,13.3-0.6c4.4-0.2,8.9-0.3,13.3-0.2l-1,1.8l0,0c-0.5-0.9-0.8-1.9-0.9-2.9
				c-0.1-1,0.1-2,0.5-3c0.4-1,1.2-2,2.6-2.4c0.7-0.2,1.3-0.1,2,0.1c0.6,0.2,1.3,0.7,1.6,1.5l0,0c0.3,0.6,0,1.3-0.6,1.6
				c-0.6,0.3-1.3,0-1.6-0.6l0,0c-0.8-1.9-0.3-3.9,0.8-5.4c0.6-0.7,1.4-1.3,2.3-1.6c0.9-0.3,1.8-0.4,2.7-0.3c1.8,0.2,3.5,1.2,4.5,2.7
				c1,1.5,1.4,3.2,1.3,5c-0.1,0.7-0.6,1.1-1.3,1.1c-0.6-0.1-1-0.5-1.1-1.1c-0.1-1.2-0.2-2.5,0-3.8c0.1-1.3,0.5-2.8,1.4-4
				c0.9-1.2,2.2-2,3.5-2.5c1.4-0.4,2.8-0.5,4.2-0.2c2.8,0.6,5,2.6,6.4,4.8c1.4,2.3,1.9,4.8,2.4,7.2l0,0l-1.2-0.9
				c2.4-0.1,4.8,0,7.3,0.1c1.2,0.1,2.4,0.1,3.6,0.3c1.2,0.1,2.4,0.2,3.6,0.4c0.2,0,0.4,0.2,0.3,0.5C78.5,55.3,78.4,55.4,78.2,55.5z"
				/>
		</g>
		<g>
			<path class="st1" d="M178.2,14.3c2.5-0.5,5.1-0.7,7.6-0.9c2.5-0.2,5.1-0.2,7.6-0.1l-1.5,1.2l0,0c0.5-2.5,1.1-5.1,2.6-7.6
				c1.5-2.4,3.8-4.5,6.8-5.2c1.5-0.3,3.1-0.2,4.5,0.2c1.5,0.5,2.8,1.4,3.8,2.7c1,1.3,1.4,2.8,1.5,4.3c0.1,1.4,0.1,2.8,0,4.1
				c-0.1,0.8-0.8,1.4-1.6,1.4c-0.7-0.1-1.3-0.6-1.4-1.4c-0.2-1.9,0.3-3.8,1.4-5.4c0.6-0.8,1.3-1.5,2.1-2c0.9-0.5,1.8-0.8,2.8-0.9
				c1-0.1,2,0,3,0.3c1,0.3,1.9,1,2.5,1.8c1.3,1.6,1.8,3.8,0.9,5.9c-0.3,0.8-1.2,1.1-2,0.8s-1.1-1.2-0.8-2l0,0l0,0
				c0.4-0.8,1.1-1.4,1.8-1.7c0.7-0.3,1.5-0.3,2.2-0.1c1.5,0.4,2.4,1.5,2.9,2.6c0.5,1.1,0.6,2.2,0.6,3.3c-0.1,1.1-0.4,2.2-0.9,3.2
				l0,0l-1.3-2.2c2.3-0.1,4.6,0,7,0c2.3,0.1,4.6,0.1,7,0.2c4.6,0.2,9.3,0.4,13.9,0.8c0.3,0,0.5,0.3,0.5,0.5c0,0.2-0.2,0.4-0.5,0.5
				c-4.6,0.4-9.3,0.6-13.9,0.8c-2.3,0.1-4.6,0.2-7,0.2c-2.3,0-4.6,0.1-7,0l0,0c-0.8,0-1.5-0.7-1.5-1.6c0-0.2,0.1-0.5,0.2-0.7l0,0
				c0.3-0.6,0.5-1.2,0.6-1.9c0-0.7-0.1-1.3-0.3-1.9c-0.2-0.5-0.6-0.9-0.9-0.9c-0.1,0-0.3,0-0.4,0c-0.1,0-0.1,0.1-0.1,0.1l-2.7-1.2
				c0.4-0.8,0.2-2-0.5-2.8c-0.6-0.8-1.7-1.2-2.8-1c-1.1,0.1-2.1,0.7-2.8,1.7c-0.7,0.9-1,2.2-0.9,3.4l-3,0c0.2-2.4,0.2-4.8-0.9-6.3
				c-1.1-1.5-3.4-2.2-5.3-1.7c-2,0.4-3.8,1.9-4.9,3.8c-1.1,1.9-1.7,4.2-2.2,6.7l0,0c-0.1,0.7-0.7,1.1-1.3,1.2l-0.2,0
				c-2.5,0.1-5.1,0-7.6-0.1c-2.5-0.2-5.1-0.4-7.6-0.9c-0.3-0.1-0.4-0.3-0.4-0.6C177.8,14.5,178,14.3,178.2,14.3z"/>
		</g>
		<path class="st2" d="M52.8,222h-1c-7.4,0-13.4-6-13.4-13.4v-4.4H56v-99.4c0-4.7,3.8-8.5,8.5-8.5h12.7l29.1,87.2l-26.4,28.4
			L52.8,222z"/>
		<path class="st3" d="M220.4,89.6h35.5c4.6,0,8.3,3.7,8.3,8.3V196v8.6v7.3H65.8v-64.1v-15.4V97.9c0-4.6,3.7-8.3,8.3-8.3h132.8
			H220.4z"/>
		<path class="st0" d="M238.2,107.3H93.5c-1.7,0-3,1.4-3,3v8.3c0,1.7,1.4,3,3,3h144.7c1.7,0,3-1.4,3-3v-8.3
			C241.2,108.7,239.9,107.3,238.2,107.3z"/>
		<g>
			<path class="st4" d="M90.1,190.9c-0.3-1.5-0.4-2.9-0.5-4.4c0-0.7,0-1.5,0-2.2l0-1.1l0-0.3l0-0.1l0-0.2c0-0.3,0.1-0.6,0.2-0.9
				c0.4-1.1,1.4-2,2.5-2.2c0.1,0,0.3-0.1,0.4-0.1l0.2,0l0.1,0l0.5,0l1.1,0l4.4,0l17.5-0.1l8.8,0l4.4,0l2.2,0c1.2,0,2.4,0.7,3,1.7
				c0.3,0.5,0.5,1.1,0.5,1.7l0,1.1l0,2.2l0,4.4c0,2.9,0.1,5.8-0.8,8.8c-0.1,0.3-0.4,0.5-0.7,0.4c-0.2-0.1-0.3-0.2-0.4-0.4
				c-0.9-2.9-0.7-5.8-0.8-8.8l0-4.4l0-2.2l0-1.1c0-0.1,0-0.2-0.1-0.3c-0.1-0.2-0.3-0.3-0.6-0.3l-2.2,0l-4.4,0l-8.8,0L99.1,182
				l-4.4,0l-1.1,0l-0.5,0l-0.1,0l-0.1,0c0,0-0.1,0-0.1,0c-0.3,0-0.5,0.3-0.6,0.5c0,0.1,0,0.1,0,0.2l0,0.1l0,0.1l0,0.3l0,1.1
				c0,0.7,0,1.5,0,2.2c0,1.5-0.2,2.9-0.5,4.4c-0.1,0.4-0.5,0.7-0.9,0.6C90.4,191.4,90.2,191.2,90.1,190.9z"/>
		</g>
		<g>
			<path class="st4" d="M142.3,198.5c-0.2-1.5-0.3-3-0.3-4.5l0-4.5l0-4.5l0-2.2c0-1.1,0.6-2.3,1.6-2.9c0.5-0.3,1.1-0.4,1.7-0.4
				l1.1,0l2.2,0l4.5,0l8.9,0l17.9,0l4.5,0c1.2,0,2.3,0.7,2.9,1.7c0.3,0.5,0.4,1.1,0.4,1.7l0,1.1l0,8.9c0,0.6-0.5,1.2-1.2,1.2
				c-0.6,0-1.2-0.5-1.2-1.2l0-8.9l0-1.1c0-0.2,0-0.3-0.1-0.5c-0.2-0.3-0.5-0.4-0.8-0.4l-4.5,0l-17.9,0l-8.9,0l-4.5,0l-2.2,0l-1.1,0
				c-0.2,0-0.3,0-0.5,0.1c-0.3,0.2-0.5,0.5-0.5,0.8l0,2.2l0,4.5l0,4.5c0,1.5,0,3-0.3,4.5c-0.1,0.5-0.5,0.8-1,0.7
				C142.7,199.2,142.4,198.8,142.3,198.5z"/>
		</g>
		<g>
			<path class="st4" d="M195,198.5c-0.2-1.4-0.3-2.8-0.3-4.1l0-4.1l0-4.1l0-2.1l0-1c0-0.1,0-0.5,0.1-0.7c0-0.3,0.1-0.5,0.2-0.8
				c0.4-1,1.4-1.7,2.5-1.9c0.6-0.1,0.9,0,1.2,0l1,0l4.1,0l8.3,0l16.6,0l8.3,0c0.1,0,0.5,0,0.7,0.1c0.3,0,0.5,0.1,0.8,0.2
				c0.5,0.2,0.9,0.6,1.3,1c0.3,0.4,0.5,0.9,0.6,1.5c0.1,0.6,0,0.8,0,1.2l0,4.1c0,0.6-0.5,1.2-1.2,1.2c-0.6,0-1.2-0.5-1.2-1.2l0-4.1
				c0-0.9,0-1-0.2-1.3c-0.1-0.1-0.2-0.2-0.3-0.3c-0.1,0-0.1-0.1-0.2-0.1c-0.1,0-0.1,0-0.3,0l-8.3,0l-16.6,0l-8.3,0l-4.1,0l-1,0
				c-0.3,0-0.8,0-0.8,0c-0.3,0-0.6,0.2-0.7,0.5c0,0.1-0.1,0.1-0.1,0.2c0,0.1,0,0.1,0,0.3l0,1l0,2.1l0,4.1l0,4.1c0,1.4,0,2.8-0.3,4.1
				c-0.1,0.5-0.6,0.8-1,0.7C195.3,199.1,195,198.8,195,198.5z"/>
		</g>
		<g>
			<path class="st4" d="M89.7,199.4c-0.1-0.5,0-0.9,0.1-1.4c0.1-0.5,0.2-0.9,0.3-1.4c0.1-0.4,0.6-0.6,1-0.5c0.2,0.1,0.4,0.3,0.5,0.5
				c0.2,0.5,0.3,0.9,0.3,1.4c0.1,0.5,0.1,0.9,0.1,1.4c-0.1,0.6-0.7,1.1-1.3,1C90.2,200.4,89.7,200,89.7,199.4z"/>
		</g>
		<g>
			<path class="st1" d="M265.8,209.9v2.6c0,0.8-0.7,1.5-1.5,1.5H65.9c-0.8,0-1.5-0.7-1.5-1.5v0c-0.1-10.7,0-21.4,0.1-32.1
				c0-5.3,0.1-10.7,0.2-16c0.1-5.3,0.2-10.7,0.4-16c0-0.5,0.4-0.8,0.9-0.8c0.4,0,0.8,0.4,0.8,0.8c0.2,5.3,0.3,10.7,0.4,16
				c0.1,5.3,0.2,10.7,0.2,16c0.1,10.7,0.1,21.4,0.1,32.1l-1.5-1.5h198.4l-1.5,1.5v-2.6c0-0.8,0.7-1.5,1.5-1.5
				C265.1,208.4,265.8,209,265.8,209.9z"/>
		</g>
		<g>
			<path class="st1" d="M220.5,89.6c6.1-0.2,12.2-0.3,18.3-0.5l9.2-0.2l4.6-0.1l2.3,0l1.1,0c0.4,0,0.9,0,1.3,0.1
				c1.8,0.2,3.4,0.9,4.8,2c1.4,1.1,2.4,2.6,3,4.3c0.3,0.8,0.5,1.7,0.5,2.6c0,0.5,0,0.8,0,1.2l0,1.1l0,4.6c0,6.1,0.1,12.2,0.1,18.3
				c0,12.2-0.1,24.5-0.2,36.7c0,6.1-0.1,12.2-0.3,18.3c-0.1,6.1-0.3,12.2-0.4,18.3c0,0.4-0.3,0.6-0.7,0.6c-0.3,0-0.6-0.3-0.6-0.6
				c-0.2-6.1-0.3-12.2-0.4-18.3c-0.1-6.1-0.2-12.2-0.3-18.3c-0.1-12.2-0.2-24.5-0.2-36.7c0-6.1,0.1-12.2,0.1-18.3l0-4.6l0-1.1
				c0-0.4,0-0.8,0-1.1c0-0.6-0.1-1.3-0.3-1.9c-0.8-2.4-3-4.4-5.6-4.7c-0.3-0.1-0.6-0.1-1-0.1l-1.1,0l-2.3,0l-4.6-0.1l-9.2-0.2
				c-6.1-0.1-12.2-0.3-18.3-0.5c-0.3,0-0.5-0.3-0.5-0.6C219.9,89.8,220.2,89.6,220.5,89.6z"/>
		</g>
		<g>
			<path class="st1" d="M65.6,132.9c-0.5-3.8-0.8-7.5-0.9-11.3c-0.1-3.8,0-7.5-0.1-11.3l0-11.3l0-0.7l0-0.8c0.1-0.5,0.1-1.1,0.3-1.6
				c0.3-1.1,0.7-2.1,1.4-3c1.2-1.8,3.1-3.2,5.2-3.8c1-0.3,2.2-0.4,3.2-0.4l2.8,0l5.6,0l11.3,0l22.5,0c15,0,30.1-0.1,45.1,0
				c15,0.1,30.1,0.3,45.1,0.7c0.4,0,0.7,0.4,0.7,0.8c0,0.4-0.3,0.7-0.7,0.7c-15,0.3-30.1,0.6-45.1,0.7c-15,0.1-30.1,0-45.1,0
				l-22.5,0l-11.3,0l-5.6,0l-2.8,0c-0.2,0-0.5,0-0.6,0c-0.2,0-0.4,0-0.6,0c-0.4,0-0.8,0.1-1.1,0.2c-1.5,0.5-2.8,1.4-3.7,2.7
				c-0.4,0.6-0.8,1.4-1,2.1c-0.1,0.4-0.2,0.8-0.2,1.2l0,0.6l0,0.7l0,11.3c0,3.8,0.1,7.5-0.1,11.3c-0.1,3.8-0.4,7.5-0.9,11.3
				c0,0.2-0.2,0.4-0.4,0.3C65.7,133.2,65.6,133,65.6,132.9z"/>
		</g>
		<g>
			<path class="st1" d="M64.4,141.5c0-0.4,0-0.7,0-1.1c0.1-0.8,0.9-1.4,1.7-1.3c0.7,0.1,1.2,0.6,1.3,1.3c0.1,0.4,0,0.7,0,1.1
				c0,0.8-0.6,1.5-1.5,1.5C65.2,143,64.5,142.4,64.4,141.5C64.4,141.5,64.4,141.5,64.4,141.5z"/>
		</g>
		<path class="st3" d="M279.1,205.2v5.6c0,0.3,0,0.6,0,1c-0.5,5.4-5,9.6-10.5,9.6H61.7c-5.5,0-10-4.2-10.5-9.6c0-0.3,0-0.6,0-1v-5.6
			h90.8c0,2,1.7,3.6,3.7,3.6h39.1c1,0,1.9-0.4,2.6-1.1c0.7-0.6,1.1-1.5,1.1-2.5H279.1z"/>
		<line class="st5" x1="216.3" y1="205.2" x2="217.1" y2="205.2"/>
		<g>
			<line class="st0" x1="296.8" y1="222.1" x2="302.4" y2="222.1"/>
			<path class="st1" d="M296.8,221.3c0.9-0.4,1.9-0.4,2.8-0.4c0.9,0,1.9,0.1,2.8,0.3c0.5,0.1,0.7,0.5,0.6,1
				c-0.1,0.3-0.3,0.6-0.6,0.6c-0.9,0.2-1.9,0.3-2.8,0.3c-0.9,0-1.9,0-2.8-0.4c-0.4-0.2-0.6-0.6-0.4-1
				C296.5,221.6,296.6,221.4,296.8,221.3z"/>
		</g>
		<g>
			<line class="st0" x1="40.7" y1="222.1" x2="292.7" y2="222.1"/>
			<path class="st1" d="M40.7,221.4c10.5-0.3,21-0.4,31.5-0.3l31.5,0l63-0.1l63-0.1l31.5,0c10.5,0,21,0,31.5,0.3
				c0.5,0,0.9,0.4,0.9,0.9c0,0.5-0.4,0.8-0.9,0.9c-10.5,0.3-21,0.3-31.5,0.3l-31.5,0l-63-0.1l-63-0.1l-31.5,0c-10.5,0-21,0-31.5-0.3
				c-0.4,0-0.7-0.3-0.7-0.7C40,221.7,40.3,221.4,40.7,221.4z"/>
		</g>
		<g>
			<line class="st0" x1="34.5" y1="222.1" x2="35.3" y2="222.1"/>
			<path class="st1" d="M34.5,221.1c0.1,0,0.3,0,0.4,0c0.1,0,0.1,0,0.2,0c0.1,0,0.1,0,0.2,0.1c0.5,0.3,0.6,1,0.3,1.4
				c-0.1,0.1-0.2,0.2-0.3,0.3c-0.1,0-0.1,0.1-0.2,0.1c-0.1,0-0.1,0.1-0.2,0c-0.1,0-0.3,0-0.4,0c-0.6-0.1-0.9-0.7-0.8-1.2
				C33.8,221.4,34.1,221.1,34.5,221.1z"/>
		</g>
		<g>
			<line class="st0" x1="24.4" y1="222.1" x2="28.5" y2="222.1"/>
			<path class="st1" d="M24.4,221.3c0.7-0.2,1.4-0.2,2-0.3c0.7,0,1.4,0,2,0.2c0.4,0.1,0.7,0.6,0.6,1.1c-0.1,0.3-0.3,0.5-0.6,0.6
				c-0.7,0.2-1.4,0.2-2,0.2c-0.7,0-1.4-0.1-2-0.3c-0.4-0.1-0.6-0.5-0.5-0.9C23.9,221.6,24.1,221.4,24.4,221.3z"/>
		</g>
		<g>
			<line class="st0" x1="137.7" y1="235.5" x2="216.3" y2="235.5"/>
			<path class="st1" d="M137.7,234.8c3.3-0.3,6.6-0.4,9.8-0.4l9.8-0.1l19.7-0.1l19.7,0l9.8,0c3.3,0,6.6,0,9.8,0.3
				c0.5,0,0.8,0.5,0.8,1c0,0.4-0.4,0.8-0.8,0.8c-3.3,0.3-6.6,0.3-9.8,0.3l-9.8,0l-19.7,0l-19.7-0.1l-9.8-0.1c-3.3,0-6.6,0-9.8-0.4
				c-0.4,0-0.6-0.4-0.6-0.7C137.1,235.1,137.3,234.8,137.7,234.8z"/>
		</g>
		<g>
			<line class="st0" x1="105.3" y1="235.5" x2="125.5" y2="235.5"/>
			<path class="st1" d="M105.3,234.7c3.4-0.2,6.7-0.2,10.1-0.3c3.4,0,6.7,0,10.1,0.2c0.4,0,0.8,0.4,0.8,0.9c0,0.4-0.4,0.7-0.8,0.8
				c-3.4,0.2-6.7,0.2-10.1,0.2c-3.4,0-6.7-0.1-10.1-0.3c-0.4,0-0.7-0.4-0.7-0.8C104.6,235,104.9,234.8,105.3,234.7z"/>
		</g>
		<g>
			<path class="st6" d="M139.8,154.4"/>
		</g>
		<path class="st7" d="M272.7,211.7c3.8,0,5.6,4.8,2.6,7.2c-1.8,1.5-4.2,2.4-6.7,2.4H61.7c-2.6,0-4.9-0.9-6.7-2.4
			c-2.9-2.4-1.1-7.2,2.6-7.2H272.7z"/>
		<g>
			<path class="st1" d="M50.3,211.8c-0.3-1.3-0.3-2.3-0.4-3.5c0-0.6-0.1-1.1-0.1-1.7c0-1.1,0.7-2.2,1.8-2.6c0.3-0.1,0.6-0.2,0.8-0.2
				l0.5,0l0.9,0l1.7,0c1.1,0,2.3-0.1,3.4-0.1c2.3,0,4.5,0.1,6.8,0.2c2.3,0.2,4.5,0.4,6.8,0.9c0.3,0.1,0.5,0.3,0.4,0.6
				c0,0.2-0.2,0.3-0.4,0.4c-2.3,0.5-4.5,0.8-6.8,0.9c-2.3,0.1-4.5,0.2-6.8,0.2c-1.1,0-2.3,0-3.4-0.1l-1.7,0l-0.9,0l-0.3,0l0,0
				c0,0,0,0,0,0l-0.1,1.7l-0.2,1.7l-0.1,0.8c0,0.3,0,0.5-0.1,0.8l0,0.1c-0.1,0.5-0.5,0.8-1,0.8C50.6,212.4,50.3,212.2,50.3,211.8z"
				/>
		</g>
		<g>
			<path class="st1" d="M182.4,208l2-0.2c0.4,0,0.5-0.1,0.8-0.1c0.2-0.1,0.4-0.2,0.6-0.3c0.4-0.3,0.7-0.6,0.9-1
				c0.2-0.4,0.2-0.8,0.2-1.2l0,0l0-0.1c0-0.8,0.7-1.4,1.5-1.4l81.6,0.2l5.1,0l2.6,0c0.8,0,1.6,0.4,2.1,1c0.3,0.3,0.5,0.6,0.6,1
				c0.1,0.2,0.1,0.4,0.1,0.6l0,0.3l0,0.2l0,2.6l0,1.3c0,0.5,0,1-0.1,1.4c-0.2,1.9-0.9,3.8-2,5.3c-2.1,3.2-5.9,5.2-9.8,5.2l-10.2,0
				l-40.8,0l-81.6,0l-40.8,0l-20.4,0l-10.2,0l-2.6,0c-0.9,0-1.9-0.1-2.8-0.3c-1.8-0.4-3.6-1.4-4.7-2.8c-0.3-0.3-0.2-0.7,0.1-1
				c0.2-0.2,0.5-0.2,0.8-0.1l0,0c1.4,0.8,2.9,1.3,4.3,1.6c0.8,0.1,1.5,0.2,2.3,0.2l2.6,0l10.2,0l20.4,0l40.8,0l81.6,0l40.8,0l10.2,0
				c3,0,5.9-1.5,7.6-4c0.9-1.2,1.4-2.6,1.5-4.1c0.1-0.4,0-0.7,0.1-1.1v-1.3l0-2.6l0-0.2l0,0c0,0,0-0.1,0-0.1c0,0-0.1-0.1-0.2-0.1
				l-2.5,0l-5.1,0l-81.6,0.2l1.5-1.5l0,0c-0.1,0.9-0.4,1.8-1,2.5c-0.5,0.7-1.3,1.3-2.1,1.6c-0.4,0.2-0.8,0.3-1.2,0.3
				c-0.4,0.1-0.9,0-1.2,0l-2-0.2c-0.4,0-0.7-0.4-0.7-0.8C181.7,208.3,182,208,182.4,208z"/>
		</g>
		<g>
			<path class="st1" d="M82,204.3c5-0.5,10-0.6,15-0.6l15-0.1c5,0,10,0,15,0c5,0,10,0,15,0.1c0.8,0,1.5,0.6,1.5,1.4l0,0
				c0,0.8,0.6,1.6,1.4,1.9c0.4,0.2,0.7,0.2,1.5,0.1l2.1,0l8.5,0.1l8.5,0.2c2.8,0.1,5.7,0,8.5,0.8c0.3,0.1,0.5,0.4,0.4,0.8
				c-0.1,0.2-0.2,0.4-0.4,0.4c-2.8,0.8-5.7,0.7-8.5,0.8l-8.5,0.2l-8.5,0.1l-2.1,0c-0.4,0-0.6,0-1.2,0c-0.5-0.1-1-0.2-1.5-0.4
				c-1.9-0.7-3.2-2.7-3.2-4.7l1.5,1.5c-5,0.1-10,0.1-15,0.1c-5,0-10,0-15,0l-15-0.1c-5,0-10-0.1-15-0.6c-0.5,0-0.9-0.5-0.8-1
				C81.2,204.7,81.6,204.3,82,204.3z"/>
		</g>
		<path class="st8" d="M214.3,109.6c0,0.7-0.1,1.4-0.1,2.1"/>
		<circle class="st0" cx="58.3" cy="4.5" r="3"/>
		<circle class="st0" cx="313.5" cy="50.4" r="3"/>
		<circle class="st0" cx="128.3" cy="33.4" r="3"/>
		<circle class="st0" cx="250.1" cy="67.8" r="5.8"/>
		<circle class="st0" cx="145.4" cy="21.1" r="4.6"/>
		<circle class="st0" cx="31.7" cy="88.1" r="4.6"/>
		<g>
			<path class="st9" d="M216.9,160.2H100.3c-5.3,0-9.5-4.3-9.5-9.5v0c0-5.3,4.3-9.5,9.5-9.5h116.7c5.3,0,9.5,4.3,9.5,9.5v0
				C226.5,156,222.2,160.2,216.9,160.2z"/>
			<path class="st3" d="M226.4,150.7c0,5.4-2.2,10.3-5.7,13.9c-3.6,3.6-8.5,5.8-13.9,5.8H156v-39.2h50.7
				C217.6,131.1,226.4,139.9,226.4,150.7z"/>
			<path class="st10" d="M226.4,150.7c0,5.4-2.2,10.3-5.7,13.9c-3.6,3.6-8.5,5.8-13.9,5.8h-22.8v-39.2h22.8
				C217.6,131.1,226.4,139.9,226.4,150.7z"/>
			<path class="st11" d="M226.4,150.7c0,5.4-2.2,10.3-5.7,13.9c-3.6,3.6-8.5,5.8-13.9,5.8H156v-39.2h50.7
				C217.6,131.1,226.4,139.9,226.4,150.7z"/>
			<path class="st12" d="M139.1,153.9h-37.9c-1.8,0-3.2-1.4-3.2-3.2l0,0c0-1.8,1.4-3.2,3.2-3.2h37.9c1.8,0,3.2,1.4,3.2,3.2l0,0
				C142.4,152.5,140.9,153.9,139.1,153.9z"/>
			<line class="st11" x1="183.8" y1="137" x2="183.8" y2="166.7"/>
			<g>
				<circle class="st9" cx="201.4" cy="149.1" r="8.4"/>
				<line class="st9" x1="207.4" y1="155.2" x2="213.8" y2="161.6"/>
			</g>
		</g>
		<g>
			<path class="st13" d="M255.8,194.5l-3.9,4.2l-11.5-10.8l-1.7,1.9c6.3-8.5,10.1-19,10.1-30.4c0-19.1-10.6-35.8-26.2-44.5l-1.1-0.1
				c-7-3.7-15.1-5.8-23.6-5.8c-5.3,0-10.5,0.8-15.3,2.4l-1.1-0.1c-20,6.8-34.4,25.8-34.4,48.2c0,28.1,22.8,50.9,50.9,50.9
				c13.8,0,26.3-5.5,35.4-14.4l-0.3,0.3l10.6,11.3l-2.9,3.2l4.6,4.6h31.7L255.8,194.5z M198.1,194.6c-21.8,0-39.5-17.7-39.5-39.5
				c0-21.8,17.7-39.6,39.5-39.6c21.8,0,39.5,17.7,39.5,39.6C237.7,176.9,219.9,194.6,198.1,194.6z"/>
			<polygon class="st14" points="258,193.6 250.7,200.9 233.1,185.3 240.4,177 			"/>
			<g>
				<path class="st10" d="M271.1,230.1l-30.4-30.4l15.1-16.1l39.9,38.9c4.4,4.4,4.4,11.6,0,16.1v0c-3.7,3.7-9.3,4.3-13.7,1.8"/>
				<path class="st1" d="M270.8,230.4c-3.1-2-5.7-4.4-8.3-6.9l-7.7-7.5c-2.6-2.5-5.1-5-7.6-7.6c-2.5-2.5-5-5.1-7.5-7.7l0,0
					c-0.5-0.6-0.5-1.5,0-2.1l15.1-16.1c0.6-0.6,1.5-0.6,2.1-0.1l0,0l0,0l15.9,15.3l15.8,15.4l7.9,7.8c3,2.8,4.6,7.2,3.9,11.3
					c-0.6,4.1-3.3,7.9-7.1,9.7c-0.9,0.4-1.9,0.8-2.9,1c-1,0.2-2.1,0.3-3.1,0.2c-1-0.1-2-0.3-3-0.7c-0.9-0.4-1.8-0.9-2.6-1.5
					c-0.3-0.3-0.4-0.7-0.1-1.1c0.2-0.2,0.5-0.3,0.8-0.2l0,0c0.8,0.2,1.7,0.5,2.5,0.6c0.8,0.1,1.6,0.2,2.5,0.2c1.6,0,3.2-0.4,4.7-1.1
					c2.9-1.4,5-4.3,5.4-7.5c0.2-1.6,0.1-3.2-0.5-4.7c-0.3-0.8-0.6-1.5-1.1-2.1c-0.2-0.3-0.5-0.7-0.7-0.9c-0.3-0.3-0.5-0.6-0.9-0.9
					l-7.9-7.7l-15.8-15.4l-15.7-15.5l2.1,0l-15.1,16.1l0-2.1c2.6,2.5,5.2,5,7.7,7.5c2.5,2.5,5.1,5,7.6,7.6l7.5,7.7
					c2.5,2.6,4.9,5.2,6.9,8.3c0.1,0.2,0.1,0.5-0.1,0.7C271.2,230.6,271,230.5,270.8,230.4z"/>
			</g>
			<path class="st0" d="M197.9,98.1c-28,0-50.7,22.7-50.7,50.7c0,28,22.7,50.6,50.7,50.6s50.6-22.7,50.6-50.6
				C248.6,120.8,225.9,98.1,197.9,98.1z M197.9,188.6c-22,0-39.9-17.9-39.9-39.9c0-22,17.9-39.9,39.9-39.9c22,0,39.9,17.9,39.9,39.9
				C237.8,170.8,220,188.6,197.9,188.6z"/>
			<g>
				<path class="st1" d="M211.6,98.9c3.1,0.2,6.2,1.1,9,2.4c2.8,1.3,5.5,2.9,8,4.7c5.1,3.6,9.5,8.1,12.9,13.3
					c6.9,10.3,9.9,23.2,8.4,35.5c-1.4,12.3-7.5,24.1-16.6,32.4c-9.1,8.4-21.3,13.4-33.8,13.7c-12.4,0.4-24.9-3.8-34.5-11.6
					c-9.6-7.8-16.4-19.1-18.5-31.4c-2.2-12.2,0-25.2,6.4-35.8c3.1-5.3,7.3-10.1,12-14c4.8-3.9,10.4-6.9,16.3-8.5
					c0.5-0.1,0.9,0.2,1.1,0.6c0.1,0.4-0.1,0.9-0.5,1l0,0c-5.5,2.3-10.6,5.3-15.1,9c-4.5,3.7-8.4,8.2-11.4,13.3
					c-6,10.1-8.1,22.4-6,33.9c2,11.5,8.4,22.2,17.6,29.5c9.1,7.4,20.8,11.4,32.5,10.9c11.7-0.3,23.2-5,31.8-12.9
					c8.6-7.9,14.4-18.9,15.7-30.5c0.7-5.8,0.4-11.7-1-17.4c-1.4-5.7-3.8-11.1-7.1-15.9c-3.3-4.8-7.4-9.1-12.1-12.6
					c-2.3-1.8-4.9-3.2-7.5-4.6c-2.5-1.4-5.2-2.6-8-3.8c-0.3-0.1-0.4-0.5-0.3-0.8C211.1,99.1,211.3,98.9,211.6,98.9z"/>
			</g>
			<g>
				<path class="st1" d="M200.4,96.7l3-0.2c0.8,0,1.6,0.6,1.6,1.4c0,0.8-0.6,1.6-1.4,1.6c-0.2,0-0.3,0-0.4,0l-0.1,0l-2.8-0.7l-0.1,0
					c-0.6-0.1-0.9-0.7-0.8-1.3C199.5,97,200,96.7,200.4,96.7z"/>
			</g>
			<g>
				<path class="st1" d="M213.6,111.4c2.6,0.8,5.2,1.9,7.5,3.5c2.3,1.5,4.5,3.3,6.4,5.3l0.7,0.7l0.7,0.8c0.5,0.5,0.9,1,1.4,1.6
					c0.8,1.1,1.7,2.2,2.4,3.4c1.5,2.3,2.7,4.9,3.7,7.5c1,2.6,1.6,5.3,2.1,8.1l0.2,2.1l0.1,1l0,1l0.1,2.1l-0.1,2.1
					c-0.2,5.6-1.6,11.1-4.1,16.1c-2.4,5-5.9,9.5-10.1,13.2c-4.2,3.7-9.2,6.4-14.6,8.1c-5.4,1.7-11,2.1-16.6,1.5
					c-2.8-0.3-5.5-0.9-8.2-1.8c-2.6-0.9-5.1-2.3-7.2-4.2c-0.2-0.2-0.2-0.5,0-0.8c0.1-0.1,0.3-0.2,0.5-0.2l0,0
					c2.6,0.7,5.1,1.6,7.6,2.3c2.5,0.8,5,1.3,7.6,1.5c5.1,0.5,10.4-0.1,15.3-1.5c9.9-3,18.4-10.2,23-19.5c2.3-4.6,3.7-9.7,3.9-14.9
					l0.1-1.9l-0.1-1.9l0-1l-0.1-1l-0.2-1.9c-0.5-2.5-1-5.1-2-7.5c-0.9-2.4-2-4.8-3.4-6.9c-0.6-1.1-1.5-2.1-2.2-3.2
					c-0.4-0.5-0.8-1-1.2-1.5l-0.6-0.7l-0.7-0.7c-3.5-3.8-7.9-6.8-12.4-9.5l0,0c-0.3-0.2-0.4-0.6-0.2-0.9
					C213,111.4,213.3,111.3,213.6,111.4z"/>
			</g>
			<g>
				<path class="st1" d="M159,158.3c-1.1-2.7-1.7-5.5-2-8.4c-0.1-1.5,0-2.9,0-4.4c0-0.7,0.1-1.5,0.2-2.2l0.3-2.2
					c0.9-5.8,3.3-11.3,6.6-16.1c1.7-2.4,3.7-4.6,5.8-6.6c1.1-0.9,2.2-1.9,3.4-2.8c1.2-0.8,2.4-1.7,3.7-2.4c5-2.9,10.7-4.8,16.5-4.9
					c0.4,0,0.7,0.3,0.7,0.7c0,0.3-0.2,0.6-0.5,0.7l0,0c-5.4,1.3-10.6,3.1-15.2,5.9c-1.2,0.6-2.2,1.5-3.4,2.3
					c-1.1,0.8-2.1,1.8-3.1,2.6c-1.9,1.9-3.7,3.9-5.2,6.2l-1.1,1.7l-1,1.8c-0.7,1.2-1.2,2.4-1.8,3.6c-0.3,0.6-0.5,1.3-0.7,1.9
					l-0.7,1.9c-0.3,1.3-0.7,2.6-1,3.9c-0.5,2.7-0.7,5.4-0.8,8.1c0,2.7,0.1,5.4,0.4,8.2c0,0.3-0.2,0.6-0.6,0.7
					C159.3,158.7,159.1,158.5,159,158.3z"/>
			</g>
		</g>
	</g>
</g>
</svg>
