<?xml version="1.0" encoding="utf-8"?>
<!-- Generator: Adobe Illustrator 22.1.0, SVG Export Plug-In . SVG Version: 6.00 Build 0)  -->
<svg version="1.1" id="Layer_1" xmlns="http://www.w3.org/2000/svg" xmlns:xlink="http://www.w3.org/1999/xlink" x="0px" y="0px"
	 viewBox="0 0 325 243" style="enable-background:new 0 0 325 243;" xml:space="preserve">
<style type="text/css">
	.st0{fill:#E5EEFD;}
	.st1{fill:#FFFFFF;}
	.st2{fill:#717791;}
	.st3{fill:#FFFFFF;stroke:#717791;stroke-width:2.6971;stroke-linecap:round;stroke-linejoin:round;stroke-miterlimit:10;}
	
		.st4{opacity:0.3;fill:none;stroke:#7282C4;stroke-width:1.7932;stroke-linecap:round;stroke-linejoin:round;stroke-miterlimit:10;stroke-dasharray:7.1728;}
	.st5{fill:#9FC3FD;}
	.st6{opacity:0.3;}
	.st7{fill:none;stroke:#7282C4;stroke-width:1.7932;stroke-linecap:round;stroke-linejoin:round;}
	.st8{fill:none;stroke:#7282C4;stroke-width:1.7932;stroke-linecap:round;stroke-linejoin:round;stroke-dasharray:7.1299,7.1299;}
	.st9{fill:#D5BEFD;}
	.st10{fill:none;stroke:#717791;stroke-width:1.9725;stroke-linecap:round;stroke-linejoin:round;stroke-miterlimit:10;}
	.st11{fill:#FFFFFF;stroke:#717791;stroke-width:1.9725;stroke-linecap:round;stroke-linejoin:round;stroke-miterlimit:10;}
	.st12{fill:#FDD1BE;}
	.st13{fill:#B8D4FF;}
	.st14{fill:#D0DEF4;}
	.st15{fill:#E5EEFD;stroke:#717791;stroke-width:1.7932;stroke-linecap:round;stroke-linejoin:round;stroke-miterlimit:10;}
	.st16{fill:none;}
	.st17{fill:#EAF1FD;}
	.st18{fill:#93B9F4;}
	.st19{fill:#E5EEFD;stroke:#717791;stroke-width:2.6898;stroke-linecap:round;stroke-linejoin:round;stroke-miterlimit:10;}
	.st20{opacity:0.2;fill:#3F72BA;}
	.st21{fill:#A3ACD6;}
	.st22{fill:#84B2FD;}
</style>
<title>Group</title>
<desc>Created with Sketch.</desc>
<g id="_x30_2._NEWSLETTER">
	<g>
		<path class="st0" d="M284,179.9c-1.5,14.9-9.9,29.9-12.1,31.6c-2.3,1.8-6.1,0.8-8.8,0.8c-6.3,0-216,0-216,0
			c-0.1-0.1-0.1-0.2-0.1-0.2c-5.4-9.4-11.5-18.5-14.5-29c-8.5-29.2,18.5-49,36-67.7c10-10.7,10.8-26.1,19.4-37.6
			c11.8-15.7,31.9-23.8,51-25.1c22-1.5,40.6,6.4,54,24.2c11,14.6,17.2,37.3,34.5,46.1c6.2,3.2,13.4,3.5,20.1,5.3
			C269.2,134.3,286.3,156.9,284,179.9z"/>
		<g>
			<g>
				<polyline class="st1" points="255.9,54.2 252.3,55 256,45.9 				"/>
				<path class="st2" d="M256,54.7l-3.6,1.1c-0.4,0.1-0.9-0.1-1-0.5c-0.1-0.2,0-0.3,0-0.5l0-0.1l3.3-9.3c0.2-0.7,1-1.1,1.7-0.8
					c0.7,0.2,1.1,1,0.8,1.7c0,0,0,0.1-0.1,0.1l-4.2,8.9l-0.9-1.1l3.7-0.5c0.3,0,0.5,0.2,0.6,0.4C256.4,54.4,256.2,54.6,256,54.7z"/>
			</g>
			<polygon class="st1" points="252.3,34.5 262,61.7 301.9,50.8 			"/>
			<g>
				<path class="st2" d="M257.6,45.5l5.2,16l-1.1-0.6l39.9-11.3l-0.1,2.6l-49.6-16.5l1.5-1.5l1.5,5.6c0.1,0.4-0.1,0.8-0.5,0.9
					c-0.3,0.1-0.7-0.1-0.8-0.4l-2.4-5.3c-0.3-0.6,0-1.3,0.6-1.5c0.3-0.1,0.6-0.1,0.8,0l0.1,0l49.7,16.2l0,0c0.7,0.2,1.1,1,0.9,1.7
					c-0.1,0.4-0.5,0.8-0.9,0.9l-40.1,10.5c-0.5,0.1-0.9-0.1-1.1-0.6l0,0l-6-15.7c-0.3-0.7,0.1-1.5,0.8-1.7
					C256.5,44.3,257.3,44.7,257.6,45.5C257.6,45.4,257.6,45.4,257.6,45.5z"/>
			</g>
			<line class="st3" x1="281.7" y1="48.8" x2="300.9" y2="50.9"/>
			<line class="st3" x1="276.4" y1="48.2" x2="276.9" y2="48.2"/>
			<line class="st3" x1="257" y1="46" x2="272.6" y2="47.8"/>
		</g>
		<path class="st4" d="M250.8,46.7c-19-0.7-41.3,0.8-42.7,16.1c-2,21.1,27.9,13.2,20.5-3.9s-73.4,5.4-64.9,106.6"/>
		<g>
			<path class="st5" d="M247.6,29.9c0.4-0.4,0.8-0.8,1.4-1.1c0.5-0.3,1.1-0.4,1.7-0.4c1.1-0.1,2.2,0.1,3.3,0.3
				c1.1,0.2,2.1,0.5,3.1,0.8c1,0.3,2,0.7,2.9,1.1c0.3,0.1,0.4,0.5,0.3,0.7c-0.1,0.3-0.4,0.4-0.7,0.3l0,0l-3-0.8
				c-1-0.2-2-0.5-2.9-0.6c-1-0.2-1.9-0.3-2.9-0.2c-0.9,0-1.7,0.2-2.6,0.7c-0.3,0.1-0.6,0-0.7-0.3C247.4,30.2,247.4,30,247.6,29.9
				L247.6,29.9z"/>
		</g>
		<g>
			<path class="st5" d="M248.1,26.9c0.8-0.8,1.9-1.1,3-1.2c1.1-0.1,2.2,0.1,3.2,0.6c0.1,0.1,0.2,0.2,0.2,0.4
				c-0.1,0.1-0.2,0.2-0.3,0.2l0,0c-1-0.3-1.9-0.4-2.9-0.3c-1,0.1-1.9,0.4-2.8,0.8l0,0c-0.1,0.1-0.3,0-0.4-0.2
				C248,27.1,248.1,27,248.1,26.9z"/>
		</g>
		<g class="st6">
			<g>
				<path class="st7" d="M41.8,105c1.1-0.4,2.3-0.7,3.4-1"/>
				<path class="st8" d="M52.2,102.7c28-3.4,70.3,9.9,90,41.6c1,1.6,2.1,3.6,3.1,5.7"/>
				<path class="st7" d="M146.6,153.3c0.4,1.2,0.7,2.4,0.9,3.5"/>
			</g>
		</g>
		<g class="st6">
			<g>
				<path class="st7" d="M118.8,44.9c1.1,0.3,2.2,0.7,3.4,1.2"/>
				<path class="st8" d="M128.6,49c24.8,13.3,51.7,48.7,49.4,86c-0.1,1.9-0.4,4.2-0.8,6.4"/>
				<path class="st7" d="M176.5,144.9c-0.4,1.2-0.8,2.4-1.3,3.3"/>
			</g>
		</g>
		<path class="st9" d="M40.1,116.6c0,3.6-1.2,6.9-3.3,9.6c-2.9-3.7-7.3-6-12.3-6c-5,0-9.5,2.4-12.3,6c-2.1-2.6-3.3-6-3.3-9.6
			c0-8.6,7-15.6,15.6-15.6C33.1,101,40.1,108,40.1,116.6z"/>
		<path class="st10" d="M41.9,116.6c0,4.4-1.6,8.4-4.3,11.5c-3.2,3.6-7.9,5.9-13.1,5.9c-5.2,0-9.9-2.3-13.1-5.9
			c-2.7-3.1-4.3-7.1-4.3-11.5c0-9.6,7.8-17.4,17.4-17.4C34.1,99.2,41.9,107,41.9,116.6z"/>
		<circle class="st11" cx="24.5" cy="111.4" r="5.2"/>
		<g>
			<path class="st2" d="M12.1,125.8c0.1-0.3,0.3-0.5,0.4-0.7c0.2-0.3,0.3-0.5,0.5-0.8c0.4-0.5,0.8-1,1.2-1.4c0.9-0.9,1.9-1.6,3-2.1
				c2.2-1.2,4.6-1.8,7.1-1.8c2.5,0,5,0.6,7.1,1.8c2.2,1.1,4,2.9,5.1,5l0,0c0.1,0.2,0,0.5-0.2,0.6c-0.2,0.1-0.4,0.1-0.5-0.1
				c-1.7-1.6-3.4-2.9-5.4-3.8c-1.9-0.9-4.1-1.4-6.2-1.4c-2.1,0-4.3,0.5-6.2,1.5c-1,0.5-1.9,1.1-2.7,1.7c-0.4,0.3-0.9,0.7-1.3,1
				c-0.4,0.4-0.8,0.8-1.3,1.2c-0.2,0.2-0.6,0.2-0.8-0.1C12,126.4,12,126.1,12.1,125.8L12.1,125.8z"/>
		</g>
		<path class="st12" d="M111,38.8c0,2.5-0.8,4.7-2.2,6.6c-2-2.5-5-4.1-8.4-4.1c-3.4,0-6.5,1.6-8.4,4.1c-1.4-1.8-2.2-4.1-2.2-6.6
			c0-5.9,4.8-10.7,10.7-10.7C106.3,28.1,111,32.9,111,38.8z"/>
		<path class="st10" d="M112.7,38.9c0,3.1-1.2,6-3.1,8.2c-2.3,2.6-5.6,4.2-9.3,4.2c-3.7,0-7-1.6-9.3-4.2c-1.9-2.2-3.1-5-3.1-8.2
			c0-6.8,5.5-12.4,12.4-12.4C107.2,26.5,112.7,32,112.7,38.9z"/>
		<circle class="st11" cx="100.4" cy="35.2" r="3.7"/>
		<g>
			<path class="st2" d="M91.4,45.3c0.2-0.3,0.4-0.7,0.6-1.1c0.3-0.4,0.5-0.7,0.9-1c0.6-0.6,1.4-1.1,2.2-1.6c1.6-0.9,3.4-1.3,5.2-1.3
				c1.8,0,3.6,0.5,5.2,1.3c1.6,0.8,2.9,2.2,3.6,3.8l0,0c0.1,0.2,0,0.5-0.2,0.6c-0.2,0.1-0.3,0-0.5-0.1c-1.3-1.1-2.5-1.9-3.8-2.6
				c-1.4-0.6-2.8-0.9-4.3-0.9c-1.5,0-2.9,0.3-4.3,1c-0.7,0.3-1.3,0.7-1.9,1.2c-0.3,0.2-0.6,0.5-0.9,0.7c-0.3,0.2-0.6,0.5-1,0.8
				c-0.3,0.2-0.6,0.2-0.8-0.1C91.3,45.8,91.3,45.6,91.4,45.3L91.4,45.3z"/>
		</g>
		<g>
			<path class="st13" d="M321.2,132.4c0,4.2-1.4,8.1-3.9,11.2c-3.3-4.3-8.6-7.1-14.4-7.1c-5.9,0-11.1,2.8-14.4,7.1
				c-2.4-3.1-3.9-7-3.9-11.2c0-10.1,8.2-18.3,18.3-18.3C313,114.1,321.2,122.3,321.2,132.4z"/>
			<path class="st10" d="M323.4,132.4c0,5.2-1.9,9.9-5.1,13.5c-3.7,4.2-9.2,6.9-15.3,6.9c-6.1,0-11.6-2.7-15.3-6.9
				c-3.2-3.6-5.1-8.3-5.1-13.5c0-11.3,9.1-20.4,20.4-20.4C314.2,111.9,323.4,121.1,323.4,132.4z"/>
			<circle class="st11" cx="302.9" cy="126.3" r="6.1"/>
			<g>
				<path class="st2" d="M288.5,143.3c0.2-0.3,0.3-0.5,0.5-0.8c0.2-0.3,0.4-0.6,0.6-0.9c0.4-0.6,0.9-1.1,1.4-1.6
					c1-1,2.2-1.8,3.5-2.5c2.5-1.3,5.4-2.1,8.3-2.1c2.9,0,5.8,0.7,8.3,2c2.5,1.3,4.7,3.4,6.1,5.8l0,0c0.1,0.2,0,0.5-0.2,0.6
					c-0.2,0.1-0.4,0.1-0.5-0.1c-1.9-1.9-3.9-3.5-6.3-4.6c-2.3-1.1-4.9-1.7-7.4-1.6c-2.5,0-5.1,0.6-7.4,1.7c-1.1,0.6-2.2,1.3-3.2,2.1
					c-0.5,0.4-1,0.8-1.5,1.2c-0.5,0.4-0.9,0.9-1.5,1.4c-0.2,0.2-0.6,0.2-0.8,0C288.4,143.8,288.3,143.5,288.5,143.3L288.5,143.3z"/>
			</g>
		</g>
		<g>
			<path class="st2" d="M65.9,58.7c-1.1,0.2-2.2,0.3-3.3,0.4c-1.1,0.1-2.2,0.2-3.3,0.2c-1.1,0-2.2,0.1-3.3,0.1c-1.1,0-2.2,0-3.3,0
				l-0.1,0c-0.5,0-0.9-0.4-1-0.8l0,0c-0.5-2.1-0.9-4.1-1.9-5.8c-1-1.6-2.6-3-4.3-3.4c-1.7-0.4-3.7,0.2-4.7,1.6c-1,1.4-1,3.4-0.8,5.5
				l-2.1,0c0.1-1.1-0.2-2.2-0.8-3c-0.6-0.9-1.5-1.4-2.5-1.5c-1-0.1-2,0.2-2.6,1c-0.6,0.7-0.8,1.8-0.5,2.6l-2,0.9
				c0,0-0.1-0.1-0.2-0.2c-0.1-0.1-0.3-0.1-0.5,0c-0.3,0.1-0.7,0.4-0.9,0.9c-0.2,0.5-0.3,1.1-0.3,1.7c0,0.6,0.2,1.2,0.5,1.7l0,0
				c0.3,0.5,0.1,1.2-0.4,1.5c-0.2,0.1-0.3,0.1-0.5,0.1c-4,0.1-7.9,0-11.9-0.1c-4-0.1-7.9-0.3-11.9-0.6c-0.2,0-0.3-0.2-0.3-0.4
				c0-0.2,0.2-0.3,0.3-0.3c4-0.3,7.9-0.4,11.9-0.6c4-0.1,7.9-0.2,11.9-0.1l-0.9,1.6l0,0c-0.5-0.8-0.7-1.7-0.8-2.6
				c-0.1-0.9,0.1-1.8,0.5-2.7c0.4-0.9,1.1-1.8,2.3-2.1c0.6-0.1,1.2-0.1,1.8,0.1c0.6,0.2,1.1,0.7,1.4,1.3l0,0c0.2,0.5,0,1.2-0.6,1.4
				c-0.5,0.2-1.2,0-1.4-0.6l0,0c-0.7-1.7-0.3-3.5,0.8-4.8c0.5-0.7,1.3-1.2,2.1-1.5c0.8-0.3,1.6-0.4,2.4-0.3c1.6,0.2,3.2,1.1,4.1,2.4
				c0.9,1.3,1.3,2.9,1.2,4.5c-0.1,0.6-0.6,1-1.2,1c-0.5,0-0.9-0.5-1-1c-0.1-1.1-0.2-2.2,0-3.4c0.1-1.2,0.5-2.5,1.3-3.6
				c1.7-2.2,4.4-2.9,6.9-2.4c2.5,0.6,4.5,2.3,5.7,4.3c1.2,2.1,1.7,4.3,2.2,6.5l0,0l-1.1-0.8c1.1-0.1,2.2,0,3.3,0
				c1.1,0,2.2,0.1,3.3,0.1c1.1,0.1,2.2,0.1,3.3,0.2c1.1,0.1,2.2,0.2,3.3,0.4c0.2,0,0.3,0.2,0.3,0.4C66.1,58.6,66,58.7,65.9,58.7z"/>
		</g>
		<g>
			<path class="st2" d="M151.3,16.6c1.1-0.2,2.3-0.4,3.4-0.5c1.1-0.1,2.3-0.2,3.4-0.3c1.1-0.1,2.3-0.1,3.4-0.1c1.1,0,2.3,0,3.4,0
				l-1.3,1.1l0,0c0.5-2.2,1-4.6,2.3-6.8c1.3-2.2,3.4-4,6.1-4.7c1.4-0.3,2.8-0.2,4.1,0.2c1.3,0.4,2.5,1.2,3.4,2.4
				c0.9,1.2,1.3,2.6,1.4,3.8c0.1,1.3,0,2.5,0,3.6c-0.1,0.7-0.7,1.3-1.4,1.2c-0.7-0.1-1.2-0.6-1.2-1.2c-0.1-1.7,0.3-3.4,1.3-4.8
				c1-1.4,2.7-2.5,4.4-2.6c0.9-0.1,1.8,0,2.7,0.3c0.9,0.3,1.7,0.9,2.2,1.6c1.1,1.4,1.6,3.4,0.8,5.3c-0.3,0.7-1.1,1-1.8,0.7
				s-1-1.1-0.7-1.8l0,0l0,0c0.3-0.7,1-1.3,1.6-1.5c0.6-0.2,1.3-0.3,2-0.1c1.4,0.4,2.1,1.4,2.6,2.3c0.4,1,0.6,2,0.5,3
				c-0.1,1-0.3,2-0.8,2.8l0,0l-1.2-2c2.1-0.1,4.2,0,6.2,0c2.1,0.1,4.2,0.1,6.2,0.2c4.2,0.2,8.3,0.4,12.5,0.7c0.2,0,0.4,0.2,0.4,0.5
				c0,0.2-0.2,0.4-0.4,0.4c-4.2,0.3-8.3,0.5-12.5,0.7c-2.1,0.1-4.2,0.1-6.2,0.2c-2.1,0-4.2,0-6.2,0l0,0c-0.8,0-1.3-0.6-1.3-1.4
				c0-0.2,0.1-0.4,0.2-0.6l0,0c0.3-0.5,0.5-1.1,0.5-1.7c0-0.6-0.1-1.2-0.3-1.7c-0.2-0.5-0.6-0.8-0.8-0.8c-0.1,0-0.3,0-0.4,0
				c-0.1,0-0.1,0.1-0.1,0.1l-2.5-1.1c0.3-0.7,0.1-1.8-0.4-2.5c-0.6-0.7-1.5-1-2.5-0.9c-1,0.1-1.9,0.6-2.5,1.5c-0.6,0.8-0.9,2-0.8,3
				l-2.7,0c0.2-2.2,0.2-4.3-0.8-5.6c-1-1.3-3-2-4.7-1.6c-1.8,0.4-3.4,1.7-4.4,3.4c-1,1.7-1.5,3.8-2,6l0,0c-0.1,0.6-0.6,1-1.2,1
				l-0.1,0c-1.1,0.1-2.3,0.1-3.4,0c-1.1,0-2.3-0.1-3.4-0.1c-1.1-0.1-2.3-0.2-3.4-0.3c-1.1-0.1-2.3-0.3-3.4-0.5
				c-0.2,0-0.4-0.3-0.3-0.5C151,16.8,151.1,16.6,151.3,16.6z"/>
		</g>
		<path class="st14" d="M68.8,212.7h-0.7c-5.7,0-10.2-4.6-10.2-10.2v-3.4h13.4v-75.9c0-3.6,2.9-6.5,6.5-6.5h9.7l22.2,66.6L89.5,205
			L68.8,212.7z"/>
		<path class="st1" d="M196.8,111.6h27.1c3.5,0,6.4,2.8,6.4,6.4v74.9v6.6v5.6H78.8v-49v-11.8V118c0-3.5,2.8-6.4,6.4-6.4h101.4H196.8
			z"/>
		<g>
			<path class="st2" d="M231.7,203.4v2c0,0.7-0.6,1.3-1.3,1.3H78.9c-0.7,0-1.3-0.6-1.3-1.3l0,0c-0.1-8.2,0-16.3,0-24.5
				c0-4.1,0.1-8.2,0.2-12.2c0.1-4.1,0.2-8.2,0.4-12.2c0-0.4,0.4-0.7,0.8-0.7c0.4,0,0.7,0.3,0.7,0.7c0.2,4.1,0.3,8.2,0.4,12.2
				c0.1,4.1,0.1,8.2,0.2,12.2c0.1,8.2,0.1,16.3,0,24.5l-1.3-1.3h151.5l-1.3,1.3v-2c0-0.7,0.6-1.3,1.3-1.3S231.7,202.7,231.7,203.4z"
				/>
		</g>
		<g>
			<path class="st2" d="M196.8,111.5c4.7-0.2,9.3-0.3,14-0.4l7-0.1l3.5-0.1l1.8,0l0.9,0c0.3,0,0.7,0,1,0.1c2.8,0.3,5.2,2.3,6.1,5
				c0.2,0.7,0.4,1.3,0.4,2c0,0.4,0,0.7,0,0.9l0,0.9l0,3.5c0,4.7,0.1,9.3,0.1,14c0,9.3-0.1,18.7-0.2,28c0,4.7-0.1,9.3-0.2,14
				c-0.1,4.7-0.2,9.3-0.4,14c0,0.3-0.3,0.6-0.6,0.6c-0.3,0-0.5-0.3-0.6-0.6c-0.2-4.7-0.3-9.3-0.4-14c-0.1-4.7-0.2-9.3-0.2-14
				c-0.1-9.3-0.2-18.7-0.2-28c0-4.7,0.1-9.3,0.1-14l0-3.5l0-0.9c0-0.3,0-0.6,0-0.8c0-0.5-0.1-0.9-0.2-1.4c-0.6-1.8-2.2-3.2-4.1-3.5
				c-0.2-0.1-0.5,0-0.7-0.1l-0.9,0l-1.8,0l-3.5-0.1l-7-0.1c-4.7-0.1-9.3-0.2-14-0.4c-0.3,0-0.5-0.2-0.5-0.5
				C196.4,111.7,196.6,111.5,196.8,111.5z"/>
		</g>
		<g>
			<path class="st2" d="M78.5,144.7c-0.5-2.9-0.7-5.7-0.8-8.6c-0.1-2.9,0-5.7-0.1-8.6l0-8.6l0-0.5l0-0.6c0-0.4,0.1-0.9,0.2-1.3
				c0.2-0.8,0.6-1.6,1.1-2.3c1-1.4,2.4-2.5,4.1-3c0.8-0.3,1.7-0.3,2.5-0.3l2.2,0l4.3,0l8.6,0l17.2,0c11.5,0,22.9-0.1,34.4,0
				c11.5,0.1,22.9,0.3,34.4,0.6c0.4,0,0.7,0.3,0.7,0.7c0,0.4-0.3,0.6-0.7,0.7c-11.5,0.3-22.9,0.5-34.4,0.6c-11.5,0.1-22.9,0-34.4,0
				l-17.2,0l-8.6,0l-4.3,0l-2.2,0c-0.7,0-1.2,0-1.8,0.2c-1.1,0.3-2.1,1-2.7,2c-0.3,0.5-0.6,1-0.7,1.6c-0.1,0.3-0.1,0.6-0.2,0.8
				l0,0.4l0,0.5l0,8.6c0,2.9,0,5.7-0.1,8.6c-0.1,2.9-0.3,5.7-0.8,8.6c0,0.2-0.2,0.3-0.4,0.3C78.7,144.9,78.6,144.8,78.5,144.7z"/>
		</g>
		<g>
			<path class="st2" d="M77.5,151.2c0-0.3,0-0.5,0-0.8c0.1-0.7,0.8-1.2,1.6-1.1c0.6,0.1,1,0.6,1.1,1.1c0,0.3,0,0.5,0,0.8
				c0,0.7-0.5,1.4-1.3,1.4c-0.7,0-1.4-0.5-1.4-1.3C77.5,151.3,77.5,151.3,77.5,151.2z"/>
		</g>
		<path class="st1" d="M241.7,199.9v4.2c0,0.2,0,0.5,0,0.7c-0.4,4.1-3.8,7.3-8,7.3h-158c-4.2,0-7.7-3.2-8-7.3c0-0.2,0-0.5,0-0.7
			v-4.2h69.3c0,1.5,1.3,2.7,2.8,2.7h29.8c0.8,0,1.5-0.3,2-0.8c0.5-0.5,0.8-1.2,0.8-1.9H241.7z"/>
		<line class="st15" x1="193.7" y1="199.9" x2="194.3" y2="199.9"/>
		<g>
			<line class="st0" x1="280.6" y1="212.7" x2="285.6" y2="212.7"/>
			<path class="st2" d="M280.6,212.1c0.8-0.3,1.7-0.4,2.5-0.3c0.8,0,1.7,0.1,2.5,0.2c0.4,0.1,0.7,0.5,0.6,0.9
				c-0.1,0.3-0.3,0.5-0.6,0.6c-0.8,0.2-1.7,0.2-2.5,0.2c-0.8,0-1.7,0-2.5-0.3c-0.4-0.1-0.5-0.5-0.4-0.9
				C280.3,212.3,280.4,212.2,280.6,212.1z"/>
		</g>
		<g>
			<line class="st0" x1="50.9" y1="212.7" x2="276.9" y2="212.7"/>
			<path class="st2" d="M50.9,212.1c9.4-0.3,18.8-0.3,28.2-0.3l28.2,0l56.5,0l56.5,0l28.2,0c9.4,0,18.8,0,28.2,0.3
				c0.4,0,0.8,0.4,0.8,0.8c0,0.4-0.4,0.8-0.8,0.8c-9.4,0.2-18.8,0.3-28.2,0.3l-28.2,0l-56.5,0l-56.5,0l-28.2,0
				c-9.4,0-18.8,0-28.2-0.3c-0.3,0-0.6-0.3-0.6-0.6C50.3,212.4,50.6,212.2,50.9,212.1z"/>
		</g>
		<g>
			<line class="st0" x1="45.4" y1="212.7" x2="46.1" y2="212.7"/>
			<path class="st2" d="M45.4,211.9c0.1,0,0.2,0,0.4,0c0.1,0,0.1,0,0.2,0c0.1,0,0.1,0,0.2,0.1c0.4,0.3,0.5,0.9,0.3,1.3
				c-0.1,0.1-0.2,0.2-0.3,0.3c-0.1,0-0.1,0.1-0.2,0.1c-0.1,0-0.1,0-0.2,0c-0.1,0-0.2,0-0.4,0c-0.5-0.1-0.8-0.6-0.7-1.1
				C44.7,212.2,45,211.9,45.4,211.9z"/>
		</g>
		<g>
			<line class="st0" x1="36.3" y1="212.7" x2="40" y2="212.7"/>
			<path class="st2" d="M36.3,212.1c0.6-0.2,1.2-0.2,1.8-0.2c0.6,0,1.2,0,1.8,0.2c0.4,0.1,0.6,0.6,0.5,1c-0.1,0.2-0.3,0.4-0.5,0.5
				c-0.6,0.2-1.2,0.2-1.8,0.2c-0.6,0-1.2-0.1-1.8-0.2c-0.4-0.1-0.6-0.5-0.5-0.8C35.9,212.3,36.1,212.2,36.3,212.1z"/>
		</g>
		<g>
			<line class="st0" x1="137.9" y1="224.8" x2="208.4" y2="224.8"/>
			<path class="st2" d="M137.9,224.2c2.9-0.3,5.9-0.3,8.8-0.3l8.8,0l17.6-0.1l17.6,0l8.8,0c2.9,0,5.9,0,8.8,0.3
				c0.4,0,0.8,0.4,0.7,0.9c0,0.4-0.3,0.7-0.7,0.7c-2.9,0.2-5.9,0.3-8.8,0.3l-8.8,0l-17.6,0l-17.6-0.1l-8.8,0c-2.9,0-5.9,0-8.8-0.3
				c-0.3,0-0.6-0.3-0.5-0.7C137.4,224.4,137.6,224.2,137.9,224.2z"/>
		</g>
		<g>
			<line class="st0" x1="108.9" y1="224.8" x2="126.9" y2="224.8"/>
			<path class="st2" d="M108.9,224.1c3-0.2,6-0.2,9-0.2c3,0,6,0,9,0.2c0.4,0,0.7,0.4,0.7,0.8c0,0.4-0.3,0.7-0.7,0.7
				c-3,0.2-6,0.2-9,0.2c-3,0-6-0.1-9-0.2c-0.4,0-0.6-0.3-0.6-0.7C108.3,224.4,108.5,224.1,108.9,224.1z"/>
		</g>
		<g>
			<path class="st16" d="M135.3,161.1"/>
		</g>
		<path class="st17" d="M236.7,204.8c2.9,0,4.2,3.6,2,5.5c-1.4,1.2-3.2,1.9-5.1,1.9h-158c-2,0-3.8-0.7-5.1-1.9
			c-2.2-1.8-0.9-5.5,2-5.5H236.7z"/>
		<g>
			<path class="st2" d="M66.8,204.9c-0.2-1-0.3-1.8-0.4-2.7c0-0.4-0.1-0.8-0.1-1.3c0-0.9,0.6-1.9,1.5-2.2c0.2-0.1,0.5-0.1,0.7-0.2
				l0.4,0l0.7,0l1.3,0c0.9,0,1.7-0.1,2.6,0c1.7,0,3.5,0.1,5.2,0.2c1.7,0.1,3.5,0.3,5.2,0.8c0.3,0.1,0.4,0.3,0.3,0.6
				c0,0.2-0.2,0.3-0.3,0.3c-1.7,0.5-3.5,0.7-5.2,0.8c-1.7,0.1-3.5,0.2-5.2,0.2c-0.9,0-1.7,0-2.6,0l-1.3,0l-0.7,0l-0.2,0
				c-0.1,0-0.1,0-0.1,0c0,0,0,0,0.1,0c0.1,0,0.1-0.1,0.1-0.2l-0.1,1.3c-0.1,0.8-0.2,1.8-0.3,2.5l0,0.1c-0.1,0.4-0.5,0.8-0.9,0.7
				C67.1,205.5,66.8,205.2,66.8,204.9z"/>
		</g>
		<g>
			<path class="st2" d="M167.8,201.9l1.5-0.2c0.3,0,0.4-0.1,0.6-0.1c0.2-0.1,0.3-0.1,0.4-0.2c0.3-0.2,0.5-0.5,0.6-0.7
				c0.1-0.3,0.1-0.6,0.1-0.8l0,0l0,0c0-0.7,0.6-1.3,1.3-1.3l62.3,0.1l3.9,0l2,0c0.7,0,1.3,0.3,1.7,0.8c0.2,0.2,0.4,0.5,0.5,0.8
				c0.1,0.2,0.1,0.3,0.1,0.5l0,0.2l0,0.1l0,1.9l0,1c0,0.4,0,0.8-0.1,1.1c-0.2,1.5-0.7,2.9-1.6,4.1c-1.7,2.5-4.6,4-7.6,4l-7.8,0
				l-31.2,0l-62.3,0l-31.2,0l-15.6,0l-7.8,0l-1.9,0c-0.7,0-1.5,0-2.2-0.2c-1.4-0.3-2.8-1.1-3.7-2.2c-0.2-0.3-0.2-0.7,0.1-0.9
				c0.2-0.2,0.5-0.2,0.7-0.1l0,0c1.1,0.5,2.2,0.9,3.3,1.1c0.6,0.1,1.1,0.1,1.7,0.1l1.9,0l7.8,0l15.6,0l31.2,0l62.3,0l31.2,0l7.8,0
				c2.2,0,4.4-1.1,5.6-3c0.6-0.9,1-2,1.2-3.1c0-0.3,0-0.5,0.1-0.8l0-1l0-1.9l0-0.1l0,0l0,0l0,0l0,0l-1.9,0l-3.9,0l-62.3,0.1l1.3-1.3
				l0,0c-0.1,0.7-0.4,1.5-0.8,2c-0.4,0.6-1,1-1.7,1.3c-0.3,0.1-0.7,0.2-1,0.2c-0.3,0-0.7,0-0.9,0l-1.5-0.2c-0.4,0-0.6-0.4-0.6-0.7
				C167.2,202.2,167.5,202,167.8,201.9z"/>
		</g>
		<g>
			<path class="st2" d="M91.1,199.1c3.8-0.4,7.6-0.5,11.4-0.5l11.4-0.1c3.8,0,7.6,0,11.4,0c3.8,0,7.6,0,11.4,0.1
				c0.7,0,1.3,0.6,1.3,1.3l0,0c0,0.6,0.4,1.1,0.9,1.3c0.3,0.1,0.4,0.1,1.1,0.1l1.6,0l6.5,0l6.5,0.1c2.2,0.1,4.3,0,6.5,0.7
				c0.3,0.1,0.5,0.4,0.4,0.7c-0.1,0.2-0.2,0.3-0.4,0.4c-2.2,0.7-4.3,0.6-6.5,0.7l-6.5,0.1l-6.5,0l-1.6,0c-0.3,0-0.5,0-0.9,0
				c-0.4,0-0.8-0.1-1.2-0.3c-1.5-0.6-2.6-2.2-2.6-3.8l1.3,1.3c-3.8,0.1-7.6,0.1-11.4,0.1c-3.8,0-7.6,0-11.4,0l-11.4-0.1
				c-3.8,0-7.6-0.1-11.4-0.5c-0.4,0-0.8-0.4-0.7-0.9C90.4,199.4,90.7,199.1,91.1,199.1z"/>
		</g>
		<path class="st18" d="M206.6,111.9c0,0.6-0.1,1.3-0.1,1.9"/>
		<g>
			<path class="st14" d="M184.2,192.1h-65.8c-2.1,0-3.8-1.7-3.8-3.8v-39.5c0-2.1,1.7-3.8,3.8-3.8h65.8c2.1,0,3.8,1.7,3.8,3.8v39.5
				C188,190.4,186.3,192.1,184.2,192.1z"/>
			<g>
				<path class="st1" d="M191.4,173.7v9c0,1.8-1.5,3.3-3.3,3.3h-64.4c-1.8,0-3.3-1.5-3.3-3.3v-40.1c0-1.8,1.5-3.3,3.3-3.3h64.4
					c1.8,0,3.3,1.5,3.3,3.3v0.2"/>
				<path class="st2" d="M192,173.7c0.7,2.1,0.8,4.1,0.8,6.2l0,1.6l0,0.8l0,0.4c0,0.1,0,0.4,0,0.5c-0.1,1.5-1,2.9-2.3,3.6
					c-0.6,0.4-1.4,0.6-2.1,0.6c-0.2,0-0.3,0-0.5,0l-0.4,0l-0.8,0l-3.1,0l-6.2,0l-24.8,0.1l-24.8,0.1l-3.1,0l-0.8,0l-0.2,0l-0.3,0
					c-0.2,0-0.4,0-0.6-0.1c-0.8-0.1-1.5-0.5-2.1-0.9c-1.2-0.9-2-2.5-1.9-4l0-3.1l0-12.4l0-12.4l0-6.2l0-3.1l0-1.6l0-0.8l0-0.4
					c0-0.2,0-0.4,0-0.6c0.2-1.5,1.1-2.9,2.5-3.7c0.7-0.4,1.4-0.6,2.2-0.6l1.6,0l6.2,0l12.4,0l24.8,0.1l12.4,0.1l6.2,0l0.8,0
					c0.3,0,0.7,0,1,0.1c0.7,0.1,1.4,0.5,2,0.9c0.6,0.5,1,1.1,1.3,1.7c0.2,0.3,0.3,0.7,0.3,1c0,0.2,0.1,0.4,0.1,0.5
					c0,0.2,0,0.4,0,0.5l0,0.1c0,0.7-0.6,1.3-1.4,1.3c-0.7,0-1.3-0.6-1.3-1.4c0-0.2,0-0.2,0-0.3c0-0.1,0-0.2,0-0.2
					c0-0.1-0.1-0.3-0.1-0.4c-0.1-0.3-0.3-0.5-0.6-0.7c-0.2-0.2-0.5-0.3-0.8-0.4c-0.2,0-0.2,0-0.5,0l-0.8,0l-6.2,0l-12.4,0.1
					l-24.8,0.1l-12.4,0l-6.2,0l-1.5,0c-0.3,0-0.5,0.1-0.8,0.2c-0.5,0.3-0.8,0.8-0.9,1.3l0,24.7l0,12.4l0,3.1c0,0.4,0,0.6,0.2,0.8
					c0.1,0.2,0.3,0.5,0.5,0.6c0.2,0.2,0.5,0.3,0.7,0.3c0.1,0,0.1,0,0.2,0l0.1,0l0.2,0l0.8,0l3.1,0l24.8,0.1l24.8,0.1l6.2,0l3.1,0
					l1.5,0c0.3,0,0.6-0.1,0.8-0.2c0.5-0.3,0.9-0.8,0.9-1.4l0-0.2l0-0.4l0-0.8l0-1.6c0-2.1,0-4.1,0.8-6.2c0.1-0.4,0.5-0.6,0.9-0.4
					C191.8,173.3,192,173.5,192,173.7z"/>
			</g>
			<g>
				<path class="st2" d="M191.9,165c0.5,0.2,0.6,0.4,0.7,0.6c0,0.2,0,0.4,0,0.6c-0.1,0.4-0.2,0.8-0.5,1.2c-0.3,0.4-0.9,0.4-1.3,0.1
					c0,0,0,0-0.1-0.1c-0.4-0.4-0.5-0.8-0.5-1.2c0-0.2,0-0.4,0-0.6c0.1-0.2,0.2-0.4,0.7-0.6C191.2,164.9,191.6,164.9,191.9,165z"/>
			</g>
			<g>
				<path class="st2" d="M192,146.6c0.2,1.2,0.3,2.4,0.4,3.6c0.1,1.2,0.2,2.4,0.3,3.6c0.1,1.2,0.1,2.4,0.1,3.6
					c0,1.2-0.1,2.4-0.6,3.6c-0.2,0.5-0.7,0.7-1.2,0.5c-0.2-0.1-0.4-0.3-0.5-0.5c-0.5-1.2-0.6-2.4-0.6-3.6c0-1.2,0.1-2.4,0.1-3.6
					c0.1-1.2,0.1-2.4,0.3-3.6c0.1-1.2,0.2-2.4,0.4-3.6c0.1-0.3,0.4-0.6,0.7-0.5C191.7,146.1,191.9,146.3,192,146.6z"/>
			</g>
			<path class="st19" d="M190,140l-29,22.4c-3.3,2.5-7.5,2.5-10.8,0l-28.7-22.1"/>
			<path class="st19" d="M189.3,140.1l-28.7-22.2c-3.2-2.5-7.5-2.5-10.7,0l-29.2,22.5"/>
			<g>
				<path class="st2" d="M149.7,163.4c-2,2.6-4.2,5.1-6.3,7.5c-1.1,1.2-2.2,2.4-3.4,3.6c-1.1,1.2-2.3,2.4-4,3
					c-0.2,0.1-0.5,0-0.6-0.3c0-0.1,0-0.2,0-0.3c0.4-1.8,1.4-3.1,2.5-4.4c1-1.3,2.1-2.5,3.1-3.8c2.1-2.5,4.3-5,6.7-7.3
					c0.5-0.5,1.4-0.5,1.9,0C150.1,162.1,150.1,162.9,149.7,163.4z"/>
			</g>
			<g>
				<path class="st2" d="M164.5,163.1c1.5,0.7,2.4,1.9,3.5,3c1.1,1.1,2.1,2.2,3.1,3.3c1,1.1,2,2.3,2.9,3.5c0.9,1.2,1.8,2.5,2.3,4
					c0.1,0.3,0,0.6-0.3,0.8c-0.2,0.1-0.3,0-0.5,0c-1.4-0.8-2.6-1.8-3.7-2.8c-1.1-1.1-2.1-2.2-3.1-3.3c-1-1.1-2-2.3-2.9-3.5
					c-0.9-1.2-2-2.3-2.5-3.9c-0.1-0.4,0.1-0.9,0.6-1.1C164,163,164.3,163,164.5,163.1z"/>
			</g>
		</g>
		<circle class="st0" cx="66.7" cy="17.7" r="2.7"/>
		<circle class="st0" cx="233.3" cy="89.8" r="5.2"/>
		<circle class="st0" cx="261.4" cy="106.2" r="4.2"/>
		<circle class="st0" cx="290.2" cy="24.2" r="3.5"/>
		<g>
			<path class="st20" d="M174.3,137.8h-42.1c-1.3,0-2.4-1.1-2.4-2.4V113H173c2.1,0,3.8,1.7,3.8,3.8v18.6
				C176.8,136.8,175.7,137.8,174.3,137.8z"/>
			<path class="st1" d="M178.7,90.2l0,40.9c0,1.3-1,2.3-2.3,2.3h-41.8c-1.3,0-2.3-1-2.3-2.3V80.7c0-1.3,1-2.3,2.3-2.3H167"/>
			<line class="st19" x1="167.3" y1="78.4" x2="179" y2="90"/>
			<g>
				<path class="st2" d="M180.3,90.2l0,21.2l0,10.6l0,5.3l0,2.7l0,0.7c0,0.2,0,0.4,0,0.8c-0.1,0.7-0.3,1.4-0.8,1.9
					c-0.4,0.5-1,1-1.7,1.2c-0.3,0.1-0.7,0.2-1,0.2l-0.7,0h-2.7h-5.3h-10.6h-21.2h-1.3c-0.6,0-1.4-0.2-2-0.5
					c-0.6-0.4-1.1-0.9-1.4-1.5c-0.2-0.3-0.3-0.7-0.3-1c0-0.2,0-0.3,0-0.5l0-0.4v-5.3v-10.6V93.7V83.1v-1.3v-0.7v-0.3
					c0-0.1,0-0.3,0-0.5c0.2-1.4,1.2-2.6,2.6-3c0.3-0.1,0.7-0.1,1-0.2l0.7,0h1.3l2.7,0c3.5,0,7.1,0,10.6,0c1.8,0,3.5,0.1,5.3,0.1
					c1.8,0,3.5,0.1,5.3,0.5c0.4,0.1,0.7,0.5,0.6,0.9c-0.1,0.3-0.3,0.5-0.6,0.6c-1.8,0.4-3.5,0.4-5.3,0.5c-1.8,0-3.5,0.1-5.3,0.1
					c-3.5,0-7.1,0-10.6,0l-2.7,0h-1.3l-0.7,0c-0.1,0-0.2,0-0.3,0c-0.3,0.1-0.6,0.4-0.7,0.8c0,0.1,0,0.1,0,0.2v0.3v0.7v1.3v10.6v21.2
					v10.6v5.3l0,0.3c0,0,0,0.1,0,0.1c0,0.1,0,0.2,0.1,0.3c0.1,0.2,0.2,0.3,0.4,0.4c0.2,0.1,0.3,0.1,0.6,0.1h1.3h21.2h10.6h5.3h2.7
					l0.6,0c0.1,0,0.2,0,0.3,0c0.2-0.1,0.3-0.2,0.4-0.3c0.1-0.1,0.2-0.3,0.2-0.5l0-0.5l0-0.7l0-2.7l0-5.3l0-10.6l0-21.2
					c0-0.7,0.6-1.3,1.3-1.3S180.3,89.4,180.3,90.2z"/>
			</g>
			<g>
				<path class="st2" d="M168.6,78.4l0,11.6l-1.4-1.4c1,0,2.1,0.1,3.1,0.2c0.5,0,1,0.1,1.6,0.1c0.5,0.1,1,0.2,1.6,0.2
					c0.4,0,0.7,0.4,0.7,0.8c0,0.4-0.3,0.7-0.7,0.7c-0.5,0-1,0.1-1.6,0.2c-0.5,0.1-1,0.1-1.6,0.1c-1,0.1-2.1,0.2-3.1,0.2
					c-0.7,0-1.3-0.5-1.4-1.2l0-0.1l0-0.1l0-11.6c0-0.7,0.6-1.3,1.3-1.3C168,77.1,168.6,77.7,168.6,78.4z"/>
			</g>
			<g>
				<line class="st0" x1="142.8" y1="102" x2="168.7" y2="102"/>
				<path class="st21" d="M142.8,101.3c2.2-0.4,4.3-0.4,6.5-0.4l6.5,0.1c2.2,0,4.3,0.1,6.5,0.2c2.2,0.1,4.3,0.2,6.5,0.3
					c0.3,0,0.6,0.3,0.5,0.6c0,0.3-0.3,0.5-0.5,0.5c-2.2,0.1-4.3,0.2-6.5,0.3c-2.2,0.1-4.3,0.2-6.5,0.2l-6.5,0.1
					c-2.2,0-4.3,0-6.5-0.4c-0.4-0.1-0.7-0.4-0.6-0.8C142.2,101.6,142.5,101.4,142.8,101.3z"/>
			</g>
			<g>
				<line class="st0" x1="153.1" y1="108.5" x2="168.7" y2="108.5"/>
				<path class="st21" d="M153.1,107.9c2.6-0.7,5.2-0.5,7.8-0.5c2.6,0.1,5.2,0.2,7.8,0.5c0.3,0,0.5,0.3,0.5,0.6
					c0,0.2-0.2,0.4-0.5,0.5c-2.6,0.3-5.2,0.5-7.8,0.5c-2.6,0-5.2,0.2-7.8-0.5c-0.3-0.1-0.5-0.4-0.4-0.7
					C152.7,108.1,152.9,107.9,153.1,107.9z"/>
			</g>
			<g>
				<line class="st0" x1="142.8" y1="108.5" x2="149.3" y2="108.5"/>
				<path class="st21" d="M142.8,107.8c1.1-0.5,2.2-0.5,3.3-0.4c1.1,0,2.2,0.2,3.3,0.4c0.4,0.1,0.6,0.5,0.5,0.8
					c-0.1,0.3-0.3,0.5-0.5,0.5c-1.1,0.3-2.2,0.4-3.3,0.4c-1.1,0-2.2,0.1-3.3-0.4c-0.4-0.2-0.5-0.6-0.3-1
					C142.5,108,142.6,107.9,142.8,107.8z"/>
			</g>
			<g>
				<line class="st0" x1="165.7" y1="114.9" x2="168.7" y2="114.9"/>
				<path class="st21" d="M165.7,114.5c0.5-0.4,1-0.5,1.5-0.6c0.3,0,0.5-0.1,0.8,0c0.3,0.1,0.5,0.1,0.8,0.4c0.4,0.4,0.4,1,0,1.4
					c0,0,0,0,0,0c-0.3,0.2-0.5,0.3-0.8,0.4c-0.3,0.1-0.5,0-0.8,0c-0.5-0.1-1-0.2-1.5-0.6C165.4,115.2,165.4,114.8,165.7,114.5
					C165.6,114.5,165.6,114.5,165.7,114.5z"/>
			</g>
			<g>
				<line class="st0" x1="142.8" y1="114.9" x2="161.4" y2="114.9"/>
				<path class="st21" d="M142.8,114.4c1.6-0.1,3.1-0.2,4.7-0.3c1.6-0.1,3.1-0.2,4.7-0.2l4.7-0.1c1.6,0,3.1,0,4.7,0.3
					c0.4,0.1,0.7,0.5,0.6,0.9c-0.1,0.3-0.3,0.5-0.6,0.6c-1.6,0.4-3.1,0.4-4.7,0.3l-4.7-0.1c-1.6,0-3.1-0.1-4.7-0.2
					c-1.6-0.1-3.1-0.2-4.7-0.3c-0.3,0-0.5-0.3-0.5-0.6C142.3,114.6,142.5,114.4,142.8,114.4z"/>
			</g>
			<g>
				<line class="st0" x1="142.8" y1="95.4" x2="161.4" y2="95.4"/>
				<path class="st21" d="M142.8,94.8c1.6-0.1,3.1-0.2,4.7-0.3c1.6-0.1,3.1-0.2,4.7-0.2l4.7-0.1c1.6,0,3.1,0,4.7,0.3
					c0.4,0.1,0.7,0.5,0.6,0.9c-0.1,0.3-0.3,0.5-0.6,0.6c-1.6,0.4-3.1,0.4-4.7,0.3l-4.7-0.1c-1.6,0-3.1-0.1-4.7-0.2
					c-1.6-0.1-3.1-0.2-4.7-0.3c-0.3,0-0.5-0.3-0.5-0.6C142.3,95.1,142.5,94.9,142.8,94.8z"/>
			</g>
			<g>
				<line class="st0" x1="164.5" y1="95.4" x2="168.1" y2="95.4"/>
				<path class="st21" d="M164.5,94.8c0.6-0.2,1.2-0.4,1.8-0.5c0.3-0.1,0.6-0.1,0.9-0.1c0.3,0,0.6,0,0.9,0.3c0.4,0.5,0.4,1.1,0,1.5
					c-0.3,0.4-0.6,0.4-0.9,0.3c-0.3,0-0.6-0.1-0.9-0.1c-0.6-0.1-1.2-0.2-1.8-0.5c-0.3-0.1-0.4-0.4-0.3-0.7
					C164.2,95,164.3,94.9,164.5,94.8z"/>
			</g>
			<g>
				<line class="st0" x1="142.8" y1="121.4" x2="159.3" y2="121.4"/>
				<path class="st21" d="M142.8,120.9c2.8-0.3,5.5-0.5,8.3-0.6c2.8-0.1,5.5-0.2,8.3,0.4c0.4,0.1,0.6,0.4,0.5,0.8
					c-0.1,0.3-0.3,0.4-0.5,0.5c-2.8,0.6-5.5,0.5-8.3,0.4c-2.8-0.1-5.5-0.3-8.3-0.6c-0.3,0-0.5-0.3-0.4-0.5
					C142.4,121.1,142.5,120.9,142.8,120.9z"/>
			</g>
			<g>
				<line class="st0" x1="148.5" y1="153.5" x2="148.5" y2="141"/>
				<path class="st22" d="M148.1,153.5c-0.3-2.1-0.4-4.2-0.5-6.3c0-2.1-0.2-4.2,0.3-6.3c0.1-0.3,0.4-0.5,0.6-0.4
					c0.2,0,0.3,0.2,0.4,0.4c0.5,2.1,0.4,4.2,0.3,6.3c-0.1,2.1-0.2,4.2-0.5,6.3c0,0.2-0.2,0.4-0.4,0.3
					C148.2,153.8,148.1,153.7,148.1,153.5z"/>
			</g>
			<g>
				<line class="st0" x1="155.3" y1="147.6" x2="155.3" y2="139.2"/>
				<path class="st22" d="M154.9,147.6c-0.3-1.4-0.4-2.8-0.5-4.2c0-1.4-0.2-2.8,0.3-4.2c0.1-0.3,0.4-0.4,0.7-0.3
					c0.2,0.1,0.3,0.2,0.3,0.3c0.5,1.4,0.4,2.8,0.3,4.2c-0.1,1.4-0.2,2.8-0.5,4.2c0,0.2-0.2,0.3-0.5,0.3
					C155.1,147.9,155,147.8,154.9,147.6z"/>
			</g>
			<g>
				<line class="st0" x1="159.8" y1="153.8" x2="159.8" y2="145.4"/>
				<path class="st22" d="M159.4,153.8c-0.3-1.4-0.4-2.8-0.5-4.2c0-1.4-0.2-2.8,0.3-4.2c0.1-0.3,0.4-0.4,0.7-0.3
					c0.2,0.1,0.3,0.2,0.3,0.3c0.5,1.4,0.4,2.8,0.3,4.2c-0.1,1.4-0.2,2.8-0.5,4.2c0,0.2-0.2,0.3-0.5,0.3
					C159.6,154.1,159.5,154,159.4,153.8z"/>
			</g>
		</g>
	</g>
</g>
</svg>
